# Blender v2.79 (sub 0) OBJ File: ''
# www.blender.org
mtllib CubeToMap.mtl
o Cube
v 1.000000 -1.000000 -1.000000
v 1.000000 -1.000000 1.000000
v -1.000000 -1.000000 1.000000
v -1.000000 -1.000000 -1.000000
v 1.000000 1.000000 -0.999999
v 0.999999 1.000000 1.000001
v -1.000000 1.000000 1.000000
v -1.000000 1.000000 -1.000000
v 1.000000 -1.000000 -0.750000
v 1.000000 -1.000000 -0.500000
v 1.000000 -1.000000 -0.250000
v 1.000000 -1.000000 0.000000
v 1.000000 -1.000000 0.250000
v 1.000000 -1.000000 0.500000
v 1.000000 -1.000000 0.750000
v 0.750000 -1.000000 -1.000000
v 0.500000 -1.000000 -1.000000
v 0.250000 -1.000000 -1.000000
v 0.000000 -1.000000 -1.000000
v -0.250000 -1.000000 -1.000000
v -0.500000 -1.000000 -1.000000
v -0.750000 -1.000000 -1.000000
v 1.000000 -0.750000 -1.000000
v 1.000000 -0.500000 -1.000000
v 1.000000 -0.250000 -1.000000
v 1.000000 0.000000 -1.000000
v 1.000000 0.250000 -1.000000
v 1.000000 0.500000 -1.000000
v 1.000000 0.750000 -1.000000
v 0.750000 -1.000000 1.000000
v 0.500000 -1.000000 1.000000
v 0.250000 -1.000000 1.000000
v -0.000000 -1.000000 1.000000
v -0.250000 -1.000000 1.000000
v -0.500000 -1.000000 1.000000
v -0.750000 -1.000000 1.000000
v 1.000000 -0.750000 1.000000
v 1.000000 -0.500000 1.000000
v 1.000000 -0.250000 1.000000
v 1.000000 0.000000 1.000000
v 1.000000 0.250000 1.000000
v 1.000000 0.500000 1.000000
v 0.999999 0.750000 1.000000
v -1.000000 -1.000000 0.750000
v -1.000000 -1.000000 0.500000
v -1.000000 -1.000000 0.250000
v -1.000000 -1.000000 -0.000000
v -1.000000 -1.000000 -0.250000
v -1.000000 -1.000000 -0.500000
v -1.000000 -1.000000 -0.750000
v -1.000000 -0.750000 1.000000
v -1.000000 -0.500000 1.000000
v -1.000000 -0.250000 1.000000
v -1.000000 0.000000 1.000000
v -1.000000 0.250000 1.000000
v -1.000000 0.500000 1.000000
v -1.000000 0.750000 1.000000
v -1.000000 -0.750000 -1.000000
v -1.000000 -0.500000 -1.000000
v -1.000000 -0.250000 -1.000000
v -1.000000 0.000000 -1.000000
v -1.000000 0.250000 -1.000000
v -1.000000 0.500000 -1.000000
v -1.000000 0.750000 -1.000000
v 1.000000 1.000000 -0.749999
v 1.000000 1.000000 -0.499999
v 1.000000 1.000000 -0.249999
v 1.000000 1.000000 0.000001
v 1.000000 1.000000 0.250001
v 1.000000 1.000000 0.500001
v 1.000000 1.000000 0.750001
v 0.750000 1.000000 -1.000000
v 0.500000 1.000000 -1.000000
v 0.250000 1.000000 -1.000000
v 0.000000 1.000000 -1.000000
v -0.250000 1.000000 -1.000000
v -0.500000 1.000000 -1.000000
v -0.750000 1.000000 -1.000000
v 0.749999 1.000000 1.000000
v 0.499999 1.000000 1.000000
v 0.249999 1.000000 1.000000
v -0.000000 1.000000 1.000000
v -0.250000 1.000000 1.000000
v -0.500000 1.000000 1.000000
v -0.750000 1.000000 1.000000
v -1.000000 1.000000 0.750000
v -1.000000 1.000000 0.500000
v -1.000000 1.000000 0.250000
v -1.000000 1.000000 -0.000000
v -1.000000 1.000000 -0.250000
v -1.000000 1.000000 -0.500000
v -1.000000 1.000000 -0.750000
v 0.750000 0.750000 -1.000000
v 0.500000 0.750000 -1.000000
v 0.250000 0.750000 -1.000000
v 0.000000 0.750000 -1.000000
v -0.250000 0.750000 -1.000000
v -0.500000 0.750000 -1.000000
v -0.750000 0.750000 -1.000000
v 0.750000 0.500000 -1.000000
v 0.500000 0.500000 -1.000000
v 0.250000 0.500000 -1.000000
v 0.000000 0.500000 -1.000000
v -0.250000 0.500000 -1.000000
v -0.500000 0.500000 -1.000000
v -0.750000 0.500000 -1.000000
v 0.750000 0.250000 -1.000000
v 0.500000 0.250000 -1.000000
v 0.250000 0.250000 -1.000000
v 0.000000 0.250000 -1.000000
v -0.250000 0.250000 -1.000000
v -0.500000 0.250000 -1.000000
v -0.750000 0.250000 -1.000000
v 0.750000 0.000000 -1.000000
v 0.500000 0.000000 -1.000000
v 0.250000 0.000000 -1.000000
v 0.000000 0.000000 -1.000000
v -0.250000 0.000000 -1.000000
v -0.500000 0.000000 -1.000000
v -0.750000 0.000000 -1.000000
v 0.750000 -0.250000 -1.000000
v 0.500000 -0.250000 -1.000000
v 0.250000 -0.250000 -1.000000
v 0.000000 -0.250000 -1.000000
v -0.250000 -0.250000 -1.000000
v -0.500000 -0.250000 -1.000000
v -0.750000 -0.250000 -1.000000
v 0.750000 -0.500000 -1.000000
v 0.500000 -0.500000 -1.000000
v 0.250000 -0.500000 -1.000000
v 0.000000 -0.500000 -1.000000
v -0.250000 -0.500000 -1.000000
v -0.500000 -0.500000 -1.000000
v -0.750000 -0.500000 -1.000000
v 0.750000 -0.750000 -1.000000
v 0.500000 -0.750000 -1.000000
v 0.250000 -0.750000 -1.000000
v 0.000000 -0.750000 -1.000000
v -0.250000 -0.750000 -1.000000
v -0.500000 -0.750000 -1.000000
v -0.750000 -0.750000 -1.000000
v -1.000000 -0.750000 0.750000
v -1.000000 -0.750000 0.500000
v -1.000000 -0.750000 0.250000
v -1.000000 -0.750000 -0.000000
v -1.000000 -0.750000 -0.250000
v -1.000000 -0.750000 -0.500000
v -1.000000 -0.750000 -0.750000
v -1.000000 -0.500000 0.750000
v -1.000000 -0.500000 0.500000
v -1.000000 -0.500000 0.250000
v -1.000000 -0.500000 -0.000000
v -1.000000 -0.500000 -0.250000
v -1.000000 -0.500000 -0.500000
v -1.000000 -0.500000 -0.750000
v -1.000000 -0.250000 0.750000
v -1.000000 -0.250000 0.500000
v -1.000000 -0.250000 0.250000
v -1.000000 -0.250000 -0.000000
v -1.000000 -0.250000 -0.250000
v -1.000000 -0.250000 -0.500000
v -1.000000 -0.250000 -0.750000
v -1.000000 0.000000 0.750000
v -1.000000 0.000000 0.500000
v -1.000000 0.000000 0.250000
v -1.000000 0.000000 -0.000000
v -1.000000 0.000000 -0.250000
v -1.000000 0.000000 -0.500000
v -1.000000 0.000000 -0.750000
v -1.000000 0.250000 0.750000
v -1.000000 0.250000 0.500000
v -1.000000 0.250000 0.250000
v -1.000000 0.250000 -0.000000
v -1.000000 0.250000 -0.250000
v -1.000000 0.250000 -0.500000
v -1.000000 0.250000 -0.750000
v -1.000000 0.500000 0.750000
v -1.000000 0.500000 0.500000
v -1.000000 0.500000 0.250000
v -1.000000 0.500000 -0.000000
v -1.000000 0.500000 -0.250000
v -1.000000 0.500000 -0.500000
v -1.000000 0.500000 -0.750000
v -1.000000 0.750000 0.750000
v -1.000000 0.750000 0.500000
v -1.000000 0.750000 0.250000
v -1.000000 0.750000 -0.000000
v -1.000000 0.750000 -0.250000
v -1.000000 0.750000 -0.500000
v -1.000000 0.750000 -0.750000
v 0.750000 -0.750000 1.000000
v 0.500000 -0.750000 1.000000
v 0.250000 -0.750000 1.000000
v -0.000000 -0.750000 1.000000
v -0.250000 -0.750000 1.000000
v -0.500000 -0.750000 1.000000
v -0.750000 -0.750000 1.000000
v 0.750000 -0.500000 1.000000
v 0.500000 -0.500000 1.000000
v 0.250000 -0.500000 1.000000
v -0.000000 -0.500000 1.000000
v -0.250000 -0.500000 1.000000
v -0.500000 -0.500000 1.000000
v -0.750000 -0.500000 1.000000
v 0.750000 -0.250000 1.000000
v 0.500000 -0.250000 1.000000
v 0.250000 -0.250000 1.000000
v -0.000000 -0.250000 1.000000
v -0.250000 -0.250000 1.000000
v -0.500000 -0.250000 1.000000
v -0.750000 -0.250000 1.000000
v 0.750000 0.000000 1.000000
v 0.500000 0.000000 1.000000
v 0.250000 0.000000 1.000000
v -0.000000 0.000000 1.000000
v -0.250000 0.000000 1.000000
v -0.500000 0.000000 1.000000
v -0.750000 0.000000 1.000000
v 0.750000 0.250000 1.000000
v 0.500000 0.250000 1.000000
v 0.250000 0.250000 1.000000
v -0.000000 0.250000 1.000000
v -0.250000 0.250000 1.000000
v -0.500000 0.250000 1.000000
v -0.750000 0.250000 1.000000
v 0.750000 0.500000 1.000000
v 0.500000 0.500000 1.000000
v 0.250000 0.500000 1.000000
v -0.000000 0.500000 1.000000
v -0.250000 0.500000 1.000000
v -0.500000 0.500000 1.000000
v -0.750000 0.500000 1.000000
v 0.749999 0.750000 1.000000
v 0.499999 0.750000 1.000000
v 0.250000 0.750000 1.000000
v -0.000000 0.750000 1.000000
v -0.250000 0.750000 1.000000
v -0.500000 0.750000 1.000000
v -0.750000 0.750000 1.000000
v 1.000000 -0.750000 -0.750000
v 1.000000 -0.750000 -0.500000
v 1.000000 -0.750000 -0.250000
v 1.000000 -0.750000 0.000000
v 1.000000 -0.750000 0.250000
v 1.000000 -0.750000 0.500000
v 1.000000 -0.750000 0.750000
v 1.000000 -0.500000 -0.750000
v 1.000000 -0.500000 -0.500000
v 1.000000 -0.500000 -0.250000
v 1.000000 -0.500000 0.000000
v 1.000000 -0.500000 0.250000
v 1.000000 -0.500000 0.500000
v 1.000000 -0.500000 0.750000
v 1.000000 -0.250000 -0.750000
v 1.000000 -0.250000 -0.500000
v 1.000000 -0.250000 -0.250000
v 1.000000 -0.250000 0.000000
v 1.000000 -0.250000 0.250000
v 1.000000 -0.250000 0.500000
v 1.000000 -0.250000 0.750000
v 1.000000 0.000000 -0.750000
v 1.000000 0.000000 -0.500000
v 1.000000 0.000000 -0.250000
v 1.000000 0.000000 0.000000
v 1.000000 0.000000 0.250000
v 1.000000 0.000000 0.500000
v 1.000000 0.000000 0.750000
v 1.000000 0.250000 -0.750000
v 1.000000 0.250000 -0.500000
v 1.000000 0.250000 -0.250000
v 1.000000 0.250000 0.000000
v 1.000000 0.250000 0.250000
v 1.000000 0.250000 0.500000
v 1.000000 0.250000 0.750000
v 1.000000 0.500000 -0.750000
v 1.000000 0.500000 -0.500000
v 1.000000 0.500000 -0.250000
v 1.000000 0.500000 0.000000
v 1.000000 0.500000 0.250000
v 1.000000 0.500000 0.500000
v 1.000000 0.500000 0.750000
v 1.000000 0.750000 -0.750000
v 1.000000 0.750000 -0.500000
v 1.000000 0.750000 -0.250000
v 1.000000 0.750000 0.000000
v 1.000000 0.750000 0.250000
v 1.000000 0.750000 0.500000
v 1.000000 0.750000 0.750000
v 0.750000 1.000000 -0.750000
v 0.750000 1.000000 -0.500000
v 0.750000 1.000000 -0.250000
v 0.750000 1.000000 0.000000
v 0.750000 1.000000 0.250000
v 0.750000 1.000000 0.500000
v 0.750000 1.000000 0.750000
v 0.500000 1.000000 -0.750000
v 0.500000 1.000000 -0.500000
v 0.500000 1.000000 -0.250000
v 0.500000 1.000000 0.000000
v 0.500000 1.000000 0.250000
v 0.500000 1.000000 0.500000
v 0.500000 1.000000 0.750000
v 0.250000 1.000000 -0.750000
v 0.250000 1.000000 -0.500000
v 0.250000 1.000000 -0.250000
v 0.250000 1.000000 0.000000
v 0.250000 1.000000 0.250000
v 0.250000 1.000000 0.500000
v 0.250000 1.000000 0.750000
v 0.000000 1.000000 -0.750000
v 0.000000 1.000000 -0.500000
v -0.000000 1.000000 -0.250000
v -0.000000 1.000000 0.000000
v -0.000000 1.000000 0.250000
v -0.000000 1.000000 0.500000
v -0.000000 1.000000 0.750000
v -0.250000 1.000000 -0.750000
v -0.250000 1.000000 -0.500000
v -0.250000 1.000000 -0.250000
v -0.250000 1.000000 0.000000
v -0.250000 1.000000 0.250000
v -0.250000 1.000000 0.500000
v -0.250000 1.000000 0.750000
v -0.500000 1.000000 -0.750000
v -0.500000 1.000000 -0.500000
v -0.500000 1.000000 -0.250000
v -0.500000 1.000000 0.000000
v -0.500000 1.000000 0.250000
v -0.500000 1.000000 0.500000
v -0.500000 1.000000 0.750000
v -0.750000 1.000000 -0.750000
v -0.750000 1.000000 -0.500000
v -0.750000 1.000000 -0.250000
v -0.750000 1.000000 -0.000000
v -0.750000 1.000000 0.250000
v -0.750000 1.000000 0.500000
v -0.750000 1.000000 0.750000
v 0.750000 -1.000000 -0.750000
v 0.500000 -1.000000 -0.750000
v 0.250000 -1.000000 -0.750000
v 0.000000 -1.000000 -0.750000
v -0.250000 -1.000000 -0.750000
v -0.500000 -1.000000 -0.750000
v -0.750000 -1.000000 -0.750000
v 0.750000 -1.000000 -0.500000
v 0.500000 -1.000000 -0.500000
v 0.250000 -1.000000 -0.500000
v 0.000000 -1.000000 -0.500000
v -0.250000 -1.000000 -0.500000
v -0.500000 -1.000000 -0.500000
v -0.750000 -1.000000 -0.500000
v 0.750000 -1.000000 -0.250000
v 0.500000 -1.000000 -0.250000
v 0.250000 -1.000000 -0.250000
v 0.000000 -1.000000 -0.250000
v -0.250000 -1.000000 -0.250000
v -0.500000 -1.000000 -0.250000
v -0.750000 -1.000000 -0.250000
v 0.750000 -1.000000 0.000000
v 0.500000 -1.000000 -0.000000
v 0.250000 -1.000000 -0.000000
v 0.000000 -1.000000 -0.000000
v -0.250000 -1.000000 -0.000000
v -0.500000 -1.000000 -0.000000
v -0.750000 -1.000000 -0.000000
v 0.750000 -1.000000 0.250000
v 0.500000 -1.000000 0.250000
v 0.250000 -1.000000 0.250000
v 0.000000 -1.000000 0.250000
v -0.250000 -1.000000 0.250000
v -0.500000 -1.000000 0.250000
v -0.750000 -1.000000 0.250000
v 0.750000 -1.000000 0.500000
v 0.500000 -1.000000 0.500000
v 0.250000 -1.000000 0.500000
v 0.000000 -1.000000 0.500000
v -0.250000 -1.000000 0.500000
v -0.500000 -1.000000 0.500000
v -0.750000 -1.000000 0.500000
v 0.750000 -1.000000 0.750000
v 0.500000 -1.000000 0.750000
v 0.250000 -1.000000 0.750000
v 0.000000 -1.000000 0.750000
v -0.250000 -1.000000 0.750000
v -0.500000 -1.000000 0.750000
v -0.750000 -1.000000 0.750000
vn 0.0000 -1.0000 0.0000
vn 0.0000 1.0000 0.0000
vn 1.0000 0.0000 0.0000
vn -0.0000 -0.0000 1.0000
vn -1.0000 -0.0000 -0.0000
vn 0.0000 0.0000 -1.0000
usemtl Material
s off
f 386//1 36//1 3//1 44//1
f 337//2 86//2 7//2 85//2
f 288//3 71//3 6//3 43//3
f 239//4 85//4 7//4 57//4
f 190//5 92//5 8//5 64//5
f 141//6 22//6 4//6 58//6
f 78//6 99//6 64//6 8//6
f 99//6 106//6 63//6 64//6
f 106//6 113//6 62//6 63//6
f 113//6 120//6 61//6 62//6
f 120//6 127//6 60//6 61//6
f 127//6 134//6 59//6 60//6
f 134//6 141//6 58//6 59//6
f 5//6 29//6 93//6 72//6
f 72//6 93//6 94//6 73//6
f 73//6 94//6 95//6 74//6
f 74//6 95//6 96//6 75//6
f 75//6 96//6 97//6 76//6
f 76//6 97//6 98//6 77//6
f 77//6 98//6 99//6 78//6
f 29//6 28//6 100//6 93//6
f 93//6 100//6 101//6 94//6
f 94//6 101//6 102//6 95//6
f 95//6 102//6 103//6 96//6
f 96//6 103//6 104//6 97//6
f 97//6 104//6 105//6 98//6
f 98//6 105//6 106//6 99//6
f 28//6 27//6 107//6 100//6
f 100//6 107//6 108//6 101//6
f 101//6 108//6 109//6 102//6
f 102//6 109//6 110//6 103//6
f 103//6 110//6 111//6 104//6
f 104//6 111//6 112//6 105//6
f 105//6 112//6 113//6 106//6
f 27//6 26//6 114//6 107//6
f 107//6 114//6 115//6 108//6
f 108//6 115//6 116//6 109//6
f 109//6 116//6 117//6 110//6
f 110//6 117//6 118//6 111//6
f 111//6 118//6 119//6 112//6
f 112//6 119//6 120//6 113//6
f 26//6 25//6 121//6 114//6
f 114//6 121//6 122//6 115//6
f 115//6 122//6 123//6 116//6
f 116//6 123//6 124//6 117//6
f 117//6 124//6 125//6 118//6
f 118//6 125//6 126//6 119//6
f 119//6 126//6 127//6 120//6
f 25//6 24//6 128//6 121//6
f 121//6 128//6 129//6 122//6
f 122//6 129//6 130//6 123//6
f 123//6 130//6 131//6 124//6
f 124//6 131//6 132//6 125//6
f 125//6 132//6 133//6 126//6
f 126//6 133//6 134//6 127//6
f 24//6 23//6 135//6 128//6
f 128//6 135//6 136//6 129//6
f 129//6 136//6 137//6 130//6
f 130//6 137//6 138//6 131//6
f 131//6 138//6 139//6 132//6
f 132//6 139//6 140//6 133//6
f 133//6 140//6 141//6 134//6
f 23//6 1//6 16//6 135//6
f 135//6 16//6 17//6 136//6
f 136//6 17//6 18//6 137//6
f 137//6 18//6 19//6 138//6
f 138//6 19//6 20//6 139//6
f 139//6 20//6 21//6 140//6
f 140//6 21//6 22//6 141//6
f 50//5 148//5 58//5 4//5
f 148//5 155//5 59//5 58//5
f 155//5 162//5 60//5 59//5
f 162//5 169//5 61//5 60//5
f 169//5 176//5 62//5 61//5
f 176//5 183//5 63//5 62//5
f 183//5 190//5 64//5 63//5
f 3//5 51//5 142//5 44//5
f 44//5 142//5 143//5 45//5
f 45//5 143//5 144//5 46//5
f 46//5 144//5 145//5 47//5
f 47//5 145//5 146//5 48//5
f 48//5 146//5 147//5 49//5
f 49//5 147//5 148//5 50//5
f 51//5 52//5 149//5 142//5
f 142//5 149//5 150//5 143//5
f 143//5 150//5 151//5 144//5
f 144//5 151//5 152//5 145//5
f 145//5 152//5 153//5 146//5
f 146//5 153//5 154//5 147//5
f 147//5 154//5 155//5 148//5
f 52//5 53//5 156//5 149//5
f 149//5 156//5 157//5 150//5
f 150//5 157//5 158//5 151//5
f 151//5 158//5 159//5 152//5
f 152//5 159//5 160//5 153//5
f 153//5 160//5 161//5 154//5
f 154//5 161//5 162//5 155//5
f 53//5 54//5 163//5 156//5
f 156//5 163//5 164//5 157//5
f 157//5 164//5 165//5 158//5
f 158//5 165//5 166//5 159//5
f 159//5 166//5 167//5 160//5
f 160//5 167//5 168//5 161//5
f 161//5 168//5 169//5 162//5
f 54//5 55//5 170//5 163//5
f 163//5 170//5 171//5 164//5
f 164//5 171//5 172//5 165//5
f 165//5 172//5 173//5 166//5
f 166//5 173//5 174//5 167//5
f 167//5 174//5 175//5 168//5
f 168//5 175//5 176//5 169//5
f 55//5 56//5 177//5 170//5
f 170//5 177//5 178//5 171//5
f 171//5 178//5 179//5 172//5
f 172//5 179//5 180//5 173//5
f 173//5 180//5 181//5 174//5
f 174//5 181//5 182//5 175//5
f 175//5 182//5 183//5 176//5
f 56//5 57//5 184//5 177//5
f 177//5 184//5 185//5 178//5
f 178//5 185//5 186//5 179//5
f 179//5 186//5 187//5 180//5
f 180//5 187//5 188//5 181//5
f 181//5 188//5 189//5 182//5
f 182//5 189//5 190//5 183//5
f 57//5 7//5 86//5 184//5
f 184//5 86//5 87//5 185//5
f 185//5 87//5 88//5 186//5
f 186//5 88//5 89//5 187//5
f 187//5 89//5 90//5 188//5
f 188//5 90//5 91//5 189//5
f 189//5 91//5 92//5 190//5
f 36//4 197//4 51//4 3//4
f 197//4 204//4 52//4 51//4
f 204//4 211//4 53//4 52//4
f 211//4 218//4 54//4 53//4
f 218//4 225//4 55//4 54//4
f 225//4 232//4 56//4 55//4
f 232//4 239//4 57//4 56//4
f 2//4 37//4 191//4 30//4
f 30//4 191//4 192//4 31//4
f 31//4 192//4 193//4 32//4
f 32//4 193//4 194//4 33//4
f 33//4 194//4 195//4 34//4
f 34//4 195//4 196//4 35//4
f 35//4 196//4 197//4 36//4
f 37//4 38//4 198//4 191//4
f 191//4 198//4 199//4 192//4
f 192//4 199//4 200//4 193//4
f 193//4 200//4 201//4 194//4
f 194//4 201//4 202//4 195//4
f 195//4 202//4 203//4 196//4
f 196//4 203//4 204//4 197//4
f 38//4 39//4 205//4 198//4
f 198//4 205//4 206//4 199//4
f 199//4 206//4 207//4 200//4
f 200//4 207//4 208//4 201//4
f 201//4 208//4 209//4 202//4
f 202//4 209//4 210//4 203//4
f 203//4 210//4 211//4 204//4
f 39//4 40//4 212//4 205//4
f 205//4 212//4 213//4 206//4
f 206//4 213//4 214//4 207//4
f 207//4 214//4 215//4 208//4
f 208//4 215//4 216//4 209//4
f 209//4 216//4 217//4 210//4
f 210//4 217//4 218//4 211//4
f 40//4 41//4 219//4 212//4
f 212//4 219//4 220//4 213//4
f 213//4 220//4 221//4 214//4
f 214//4 221//4 222//4 215//4
f 215//4 222//4 223//4 216//4
f 216//4 223//4 224//4 217//4
f 217//4 224//4 225//4 218//4
f 41//4 42//4 226//4 219//4
f 219//4 226//4 227//4 220//4
f 220//4 227//4 228//4 221//4
f 221//4 228//4 229//4 222//4
f 222//4 229//4 230//4 223//4
f 223//4 230//4 231//4 224//4
f 224//4 231//4 232//4 225//4
f 42//4 43//4 233//4 226//4
f 226//4 233//4 234//4 227//4
f 227//4 234//4 235//4 228//4
f 228//4 235//4 236//4 229//4
f 229//4 236//4 237//4 230//4
f 230//4 237//4 238//4 231//4
f 231//4 238//4 239//4 232//4
f 43//4 6//4 79//4 233//4
f 233//4 79//4 80//4 234//4
f 234//4 80//4 81//4 235//4
f 235//4 81//4 82//4 236//4
f 236//4 82//4 83//4 237//4
f 237//4 83//4 84//4 238//4
f 238//4 84//4 85//4 239//4
f 15//3 246//3 37//3 2//3
f 246//3 253//3 38//3 37//3
f 253//3 260//3 39//3 38//3
f 260//3 267//3 40//3 39//3
f 267//3 274//3 41//3 40//3
f 274//3 281//3 42//3 41//3
f 281//3 288//3 43//3 42//3
f 1//3 23//3 240//3 9//3
f 9//3 240//3 241//3 10//3
f 10//3 241//3 242//3 11//3
f 11//3 242//3 243//3 12//3
f 12//3 243//3 244//3 13//3
f 13//3 244//3 245//3 14//3
f 14//3 245//3 246//3 15//3
f 23//3 24//3 247//3 240//3
f 240//3 247//3 248//3 241//3
f 241//3 248//3 249//3 242//3
f 242//3 249//3 250//3 243//3
f 243//3 250//3 251//3 244//3
f 244//3 251//3 252//3 245//3
f 245//3 252//3 253//3 246//3
f 24//3 25//3 254//3 247//3
f 247//3 254//3 255//3 248//3
f 248//3 255//3 256//3 249//3
f 249//3 256//3 257//3 250//3
f 250//3 257//3 258//3 251//3
f 251//3 258//3 259//3 252//3
f 252//3 259//3 260//3 253//3
f 25//3 26//3 261//3 254//3
f 254//3 261//3 262//3 255//3
f 255//3 262//3 263//3 256//3
f 256//3 263//3 264//3 257//3
f 257//3 264//3 265//3 258//3
f 258//3 265//3 266//3 259//3
f 259//3 266//3 267//3 260//3
f 26//3 27//3 268//3 261//3
f 261//3 268//3 269//3 262//3
f 262//3 269//3 270//3 263//3
f 263//3 270//3 271//3 264//3
f 264//3 271//3 272//3 265//3
f 265//3 272//3 273//3 266//3
f 266//3 273//3 274//3 267//3
f 27//3 28//3 275//3 268//3
f 268//3 275//3 276//3 269//3
f 269//3 276//3 277//3 270//3
f 270//3 277//3 278//3 271//3
f 271//3 278//3 279//3 272//3
f 272//3 279//3 280//3 273//3
f 273//3 280//3 281//3 274//3
f 28//3 29//3 282//3 275//3
f 275//3 282//3 283//3 276//3
f 276//3 283//3 284//3 277//3
f 277//3 284//3 285//3 278//3
f 278//3 285//3 286//3 279//3
f 279//3 286//3 287//3 280//3
f 280//3 287//3 288//3 281//3
f 29//3 5//3 65//3 282//3
f 282//3 65//3 66//3 283//3
f 283//3 66//3 67//3 284//3
f 284//3 67//3 68//3 285//3
f 285//3 68//3 69//3 286//3
f 286//3 69//3 70//3 287//3
f 287//3 70//3 71//3 288//3
f 71//2 295//2 79//2 6//2
f 295//2 302//2 80//2 79//2
f 302//2 309//2 81//2 80//2
f 309//2 316//2 82//2 81//2
f 316//2 323//2 83//2 82//2
f 323//2 330//2 84//2 83//2
f 330//2 337//2 85//2 84//2
f 5//2 72//2 289//2 65//2
f 65//2 289//2 290//2 66//2
f 66//2 290//2 291//2 67//2
f 67//2 291//2 292//2 68//2
f 68//2 292//2 293//2 69//2
f 69//2 293//2 294//2 70//2
f 70//2 294//2 295//2 71//2
f 72//2 73//2 296//2 289//2
f 289//2 296//2 297//2 290//2
f 290//2 297//2 298//2 291//2
f 291//2 298//2 299//2 292//2
f 292//2 299//2 300//2 293//2
f 293//2 300//2 301//2 294//2
f 294//2 301//2 302//2 295//2
f 73//2 74//2 303//2 296//2
f 296//2 303//2 304//2 297//2
f 297//2 304//2 305//2 298//2
f 298//2 305//2 306//2 299//2
f 299//2 306//2 307//2 300//2
f 300//2 307//2 308//2 301//2
f 301//2 308//2 309//2 302//2
f 74//2 75//2 310//2 303//2
f 303//2 310//2 311//2 304//2
f 304//2 311//2 312//2 305//2
f 305//2 312//2 313//2 306//2
f 306//2 313//2 314//2 307//2
f 307//2 314//2 315//2 308//2
f 308//2 315//2 316//2 309//2
f 75//2 76//2 317//2 310//2
f 310//2 317//2 318//2 311//2
f 311//2 318//2 319//2 312//2
f 312//2 319//2 320//2 313//2
f 313//2 320//2 321//2 314//2
f 314//2 321//2 322//2 315//2
f 315//2 322//2 323//2 316//2
f 76//2 77//2 324//2 317//2
f 317//2 324//2 325//2 318//2
f 318//2 325//2 326//2 319//2
f 319//2 326//2 327//2 320//2
f 320//2 327//2 328//2 321//2
f 321//2 328//2 329//2 322//2
f 322//2 329//2 330//2 323//2
f 77//2 78//2 331//2 324//2
f 324//2 331//2 332//2 325//2
f 325//2 332//2 333//2 326//2
f 326//2 333//2 334//2 327//2
f 327//2 334//2 335//2 328//2
f 328//2 335//2 336//2 329//2
f 329//2 336//2 337//2 330//2
f 78//2 8//2 92//2 331//2
f 331//2 92//2 91//2 332//2
f 332//2 91//2 90//2 333//2
f 333//2 90//2 89//2 334//2
f 334//2 89//2 88//2 335//2
f 335//2 88//2 87//2 336//2
f 336//2 87//2 86//2 337//2
f 22//1 344//1 50//1 4//1
f 344//1 351//1 49//1 50//1
f 351//1 358//1 48//1 49//1
f 358//1 365//1 47//1 48//1
f 365//1 372//1 46//1 47//1
f 372//1 379//1 45//1 46//1
f 379//1 386//1 44//1 45//1
f 1//1 9//1 338//1 16//1
f 16//1 338//1 339//1 17//1
f 17//1 339//1 340//1 18//1
f 18//1 340//1 341//1 19//1
f 19//1 341//1 342//1 20//1
f 20//1 342//1 343//1 21//1
f 21//1 343//1 344//1 22//1
f 9//1 10//1 345//1 338//1
f 338//1 345//1 346//1 339//1
f 339//1 346//1 347//1 340//1
f 340//1 347//1 348//1 341//1
f 341//1 348//1 349//1 342//1
f 342//1 349//1 350//1 343//1
f 343//1 350//1 351//1 344//1
f 10//1 11//1 352//1 345//1
f 345//1 352//1 353//1 346//1
f 346//1 353//1 354//1 347//1
f 347//1 354//1 355//1 348//1
f 348//1 355//1 356//1 349//1
f 349//1 356//1 357//1 350//1
f 350//1 357//1 358//1 351//1
f 11//1 12//1 359//1 352//1
f 352//1 359//1 360//1 353//1
f 353//1 360//1 361//1 354//1
f 354//1 361//1 362//1 355//1
f 355//1 362//1 363//1 356//1
f 356//1 363//1 364//1 357//1
f 357//1 364//1 365//1 358//1
f 12//1 13//1 366//1 359//1
f 359//1 366//1 367//1 360//1
f 360//1 367//1 368//1 361//1
f 361//1 368//1 369//1 362//1
f 362//1 369//1 370//1 363//1
f 363//1 370//1 371//1 364//1
f 364//1 371//1 372//1 365//1
f 13//1 14//1 373//1 366//1
f 366//1 373//1 374//1 367//1
f 367//1 374//1 375//1 368//1
f 368//1 375//1 376//1 369//1
f 369//1 376//1 377//1 370//1
f 370//1 377//1 378//1 371//1
f 371//1 378//1 379//1 372//1
f 14//1 15//1 380//1 373//1
f 373//1 380//1 381//1 374//1
f 374//1 381//1 382//1 375//1
f 375//1 382//1 383//1 376//1
f 376//1 383//1 384//1 377//1
f 377//1 384//1 385//1 378//1
f 378//1 385//1 386//1 379//1
f 15//1 2//1 30//1 380//1
f 380//1 30//1 31//1 381//1
f 381//1 31//1 32//1 382//1
f 382//1 32//1 33//1 383//1
f 383//1 33//1 34//1 384//1
f 384//1 34//1 35//1 385//1
f 385//1 35//1 36//1 386//1
