# Blender v2.79 (sub 0) OBJ File: 'PineTreeV1.blend'
# www.blender.org
mtllib PineTreeV1.mtl
o Cylinder
v -0.000000 1.138377 -1.853536
v 0.751628 1.576244 -0.751628
v 0.751628 1.576244 0.751628
v -0.751628 1.576244 0.751628
v -0.000000 6.974509 0.000270
v -0.751628 1.576244 -0.751628
v 0.000000 2.147742 -1.071974
v -0.000000 3.094936 -0.874878
v -0.000000 4.042131 -0.677783
v 0.183719 5.045858 -0.428766
v 0.140509 5.991323 -0.241641
v 0.419017 4.161829 -0.419017
v 0.540864 3.214634 -0.540864
v 0.662712 2.267440 -0.662712
v 0.241644 5.991320 0.140513
v 0.428766 5.045858 0.183719
v 0.677783 4.042131 0.000000
v 0.874878 3.094936 0.000000
v 1.071974 2.147742 0.000000
v 0.419017 4.161829 0.419017
v 0.540864 3.214634 0.540864
v 0.662712 2.267440 0.662712
v -0.000000 4.989325 0.480687
v -0.000000 4.042131 0.677783
v -0.000000 3.094936 0.874878
v -0.000000 2.147742 1.071974
v -0.241644 5.991320 0.140513
v -0.428766 5.045858 0.183719
v -0.419017 4.161829 0.419017
v -0.540864 3.214634 0.540864
v -0.662712 2.267440 0.662712
v -0.677783 4.042131 0.000000
v -0.874878 3.094936 0.000000
v -1.071974 2.147742 0.000000
v -0.297169 5.109023 -0.297169
v -0.419017 4.161829 -0.419017
v -0.540864 3.214634 -0.540864
v -0.662712 2.267440 -0.662712
v 0.000000 5.811784 -0.548280
v 0.338956 5.931481 -0.338956
v 0.548340 5.811784 -0.000029
v 0.338993 5.931481 0.338968
v -0.000000 5.888657 0.379930
v -0.338993 5.931481 0.338968
v -0.548340 5.811784 -0.000029
v -0.282745 5.959090 -0.304522
v 0.000000 4.862113 -0.903196
v 0.558371 4.981811 -0.558371
v 0.903196 4.862112 0.000000
v 0.558371 4.981811 0.558371
v -0.000000 4.862112 0.903196
v -0.558371 4.981811 0.558371
v -0.903196 4.862112 0.000000
v -0.558371 4.981811 -0.558371
v 0.000000 3.914919 -1.225294
v 0.757497 4.034616 -0.757497
v 1.225294 3.914918 0.000000
v 0.757497 4.034616 0.757497
v -0.000000 3.914918 1.225294
v -0.757497 4.034616 0.757497
v -1.225294 3.914918 0.000000
v -0.757497 4.034616 -0.757497
v 0.000000 2.967724 -1.470190
v 0.908896 3.087422 -0.908896
v 1.470190 2.967724 0.000000
v 0.908896 3.087422 0.908896
v -0.000000 2.967724 1.470190
v -0.908896 3.087422 0.908896
v -1.470190 2.967724 0.000000
v -0.908896 3.087422 -0.908896
v 0.000000 2.020530 -1.813522
v 1.121149 2.140227 -1.121149
v 1.813522 2.020530 0.000000
v 1.121149 2.140227 1.121149
v -0.000000 2.020530 1.813522
v -1.121150 2.140227 1.121149
v -1.813522 2.020530 0.000000
v -1.121150 2.140227 -1.121149
v 1.347608 1.019329 -1.347608
v 1.853535 1.138377 -0.000000
v 1.347608 1.019329 1.347608
v 0.000000 1.138376 1.853536
v -1.347608 1.019329 1.347607
v -1.853536 1.138377 0.000000
v -1.347608 1.019329 -1.347607
v 0.093673 -0.000886 -0.266417
v 0.093728 1.775030 -0.266490
v 0.223980 -0.001748 -0.053180
v 0.259560 1.773793 0.000000
v 0.093673 -0.000886 0.266417
v 0.093728 1.775030 0.266490
v -0.256146 0.000183 0.121956
v -0.256198 1.773978 0.121958
v -0.183537 0.000373 -0.201404
v -0.183537 1.773793 -0.201404
v 0.182723 0.881703 0.087308
v -0.000000 0.881250 0.213503
v -0.182723 0.881702 0.087308
v -0.076966 0.881756 -0.212473
vn 0.3776 0.3951 -0.8374
vn 0.8374 0.3950 -0.3778
vn 0.8375 0.3949 0.3778
vn 0.0722 0.3292 0.9415
vn -0.0722 0.3292 0.9415
vn -0.8375 0.3949 0.3778
vn -0.7815 0.3687 -0.5033
vn -0.4869 0.3727 -0.7900
vn -0.7775 0.4820 0.4040
vn -0.8087 0.4229 0.4088
vn 0.7775 0.4820 0.4040
vn 0.8087 0.4229 0.4088
vn 0.4040 0.4820 -0.7775
vn 0.4088 0.4229 -0.8087
vn -0.0800 -0.9428 -0.3235
vn 0.0800 -0.9428 -0.3235
vn -0.2624 -0.8219 0.5056
vn -0.5056 -0.8219 0.2624
vn -0.5056 -0.8219 -0.2624
vn -0.2624 -0.8219 -0.5056
vn 0.2624 -0.8219 -0.5056
vn 0.5056 -0.8219 -0.2624
vn 0.5056 -0.8219 0.2624
vn 0.2624 -0.8219 0.5056
vn -0.3366 0.5827 -0.7397
vn 0.0000 -1.0000 0.0000
vn -0.3552 0.6016 -0.7155
vn -0.3712 0.5368 -0.7577
vn -0.3019 0.5371 -0.7877
vn -0.2148 0.4246 -0.8795
vn -0.7397 0.5827 -0.3366
vn -0.7155 0.6016 -0.3552
vn -0.7577 0.5368 -0.3712
vn -0.7877 0.5371 -0.3019
vn -0.8734 0.4310 -0.2268
vn -0.7397 0.5827 0.3366
vn -0.7155 0.6016 0.3552
vn -0.7577 0.5368 0.3712
vn -0.3366 0.5827 0.7397
vn -0.3552 0.6016 0.7155
vn -0.3712 0.5368 0.7577
vn -0.4007 0.5338 0.7446
vn -0.4508 0.4313 0.7815
vn 0.3366 0.5827 0.7397
vn 0.3552 0.6016 0.7155
vn 0.3712 0.5368 0.7577
vn 0.4007 0.5338 0.7446
vn 0.4508 0.4313 0.7815
vn 0.7397 0.5827 0.3366
vn 0.7155 0.6016 0.3552
vn 0.7577 0.5368 0.3712
vn 0.7397 0.5827 -0.3366
vn 0.7155 0.6016 -0.3552
vn 0.7577 0.5368 -0.3712
vn 0.7522 0.5631 -0.3422
vn 0.8145 0.4806 -0.3250
vn 0.3366 0.5827 -0.7397
vn 0.3552 0.6016 -0.7155
vn 0.3712 0.5368 -0.7577
vn -0.4170 -0.9085 0.0288
vn -0.0100 -0.8609 0.5087
vn 0.4994 -0.8662 0.0166
vn 0.5086 -0.8609 -0.0101
vn -0.5086 -0.8609 -0.0101
vn -0.2676 -0.9629 0.0364
vn -0.0101 -0.8609 0.5087
vn -0.0303 -0.9281 0.3712
vn 0.0198 -0.9715 -0.2363
vn -0.3712 -0.9281 -0.0303
vn -0.0198 -0.9715 -0.2363
vn 0.3827 -0.9238 0.0129
vn 0.3712 -0.9281 -0.0303
vn 0.0129 -0.9238 0.3827
vn 0.0203 -0.9589 0.2831
vn -0.2831 -0.9589 -0.0203
vn -0.2831 -0.9589 0.0203
vn 0.0203 -0.9589 -0.2831
vn -0.0203 -0.9589 -0.2831
vn 0.2831 -0.9589 0.0203
vn 0.2831 -0.9589 -0.0203
vn -0.0203 -0.9589 0.2831
vn 0.0016 -0.9667 0.2559
vn -0.2559 -0.9667 -0.0016
vn -0.2559 -0.9667 0.0016
vn 0.0016 -0.9667 -0.2559
vn -0.0016 -0.9667 -0.2559
vn 0.2559 -0.9667 0.0016
vn 0.2559 -0.9667 -0.0016
vn -0.0016 -0.9667 0.2559
vn 0.0026 -0.9780 0.2084
vn -0.2084 -0.9780 -0.0026
vn -0.2084 -0.9780 0.0026
vn 0.0026 -0.9780 -0.2084
vn -0.0026 -0.9780 -0.2084
vn 0.2084 -0.9780 0.0026
vn 0.2084 -0.9780 -0.0026
vn -0.0026 -0.9780 0.2084
vn 0.2187 -0.1005 -0.9706
vn 0.5652 -0.1078 0.8179
vn -0.2282 0.0154 -0.9735
vn 0.9258 -0.0168 0.3775
vn 0.9627 -0.0112 -0.2704
vn -0.4527 -0.0386 0.8908
vn 0.8488 -0.0214 0.5283
vn -0.9575 -0.0896 -0.2741
vn -0.9574 0.0906 -0.2740
vn -0.2284 -0.0152 -0.9734
vn -0.4526 0.0390 0.8908
vn 0.5647 0.1090 0.8181
vn 0.8376 0.1932 -0.5110
usemtl Leaves
s off
f 5//1 40//1 39//1
f 40//2 5//2 41//2
f 5//3 42//3 41//3
f 42//4 5//4 43//4
f 5//5 44//5 43//5
f 44//6 5//6 45//6
f 5//7 46//7 45//7
f 46//8 5//8 39//8
f 60//9 28//9 61//9
f 52//10 27//10 53//10
f 16//11 58//11 57//11
f 15//12 50//12 49//12
f 10//13 56//13 55//13
f 11//14 48//14 47//14
f 43//15 44//15 27//15
f 42//16 43//16 15//16
f 1//17 79//17 2//17
f 79//18 80//18 2//18
f 80//19 81//19 3//19
f 81//20 82//20 3//20
f 82//21 83//21 4//21
f 83//22 84//22 4//22
f 84//23 85//23 6//23
f 85//24 1//24 6//24
f 7//25 1//25 85//25 38//25
f 4//26 84//26 6//26 1//26 2//26 80//26 3//26 82//26
f 8//27 71//27 78//27 37//27
f 9//28 63//28 70//28 36//28
f 10//29 55//29 62//29 35//29
f 11//30 47//30 54//30 46//30
f 85//31 84//31 34//31 38//31
f 78//32 77//32 33//32 37//32
f 70//33 69//33 32//33 36//33
f 62//34 61//34 28//34 35//34
f 54//35 53//35 27//35 46//35
f 34//36 84//36 83//36 31//36
f 33//37 77//37 76//37 30//37
f 32//38 69//38 68//38 29//38
f 83//39 82//39 26//39 31//39
f 76//40 75//40 25//40 30//40
f 68//41 67//41 24//41 29//41
f 60//42 59//42 23//42 28//42
f 52//43 51//43 43//43 27//43
f 26//44 82//44 81//44 22//44
f 25//45 75//45 74//45 21//45
f 24//46 67//46 66//46 20//46
f 23//47 59//47 58//47 16//47
f 43//48 51//48 50//48 15//48
f 81//49 80//49 19//49 22//49
f 74//50 73//50 18//50 21//50
f 66//51 65//51 17//51 20//51
f 19//52 80//52 79//52 14//52
f 18//53 73//53 72//53 13//53
f 17//54 65//54 64//54 12//54
f 16//55 57//55 56//55 10//55
f 15//56 49//56 48//56 11//56
f 79//57 1//57 7//57 14//57
f 72//58 71//58 8//58 13//58
f 64//59 63//59 9//59 12//59
f 15//60 11//60 40//60 41//60
f 46//61 39//61 11//61
f 27//62 45//62 46//62
f 44//63 45//63 27//63
f 15//64 41//64 42//64
f 16//65 10//65 48//65 49//65
f 11//66 39//66 40//66
f 10//67 47//67 48//67
f 23//68 16//68 50//68 51//68
f 16//69 49//69 50//69
f 52//70 28//70 23//70 51//70
f 54//71 35//71 28//71 53//71
f 52//72 53//72 28//72
f 10//73 35//73 54//73 47//73
f 56//74 12//74 9//74 55//74
f 17//75 12//75 56//75 57//75
f 58//76 20//76 17//76 57//76
f 24//77 20//77 58//77 59//77
f 60//78 29//78 24//78 59//78
f 32//79 29//79 60//79 61//79
f 62//80 36//80 32//80 61//80
f 9//81 36//81 62//81 55//81
f 64//82 13//82 8//82 63//82
f 18//83 13//83 64//83 65//83
f 66//84 21//84 18//84 65//84
f 25//85 21//85 66//85 67//85
f 68//86 30//86 25//86 67//86
f 33//87 30//87 68//87 69//87
f 70//88 37//88 33//88 69//88
f 8//89 37//89 70//89 63//89
f 72//90 14//90 7//90 71//90
f 19//91 14//91 72//91 73//91
f 74//92 22//92 19//92 73//92
f 26//93 22//93 74//93 75//93
f 76//94 31//94 26//94 75//94
f 34//95 31//95 76//95 77//95
f 78//96 38//96 34//96 77//96
f 7//97 38//97 78//97 71//97
usemtl Trunk
f 99//98 87//98 88//98
f 91//99 97//99 96//99
f 94//100 99//100 86//100
f 88//101 96//101 90//101
f 89//102 96//102 88//102 87//102
f 93//103 98//103 97//103 91//103
f 89//104 91//104 96//104
f 99//105 98//105 93//105 95//105
f 99//106 94//106 92//106 98//106
f 95//107 87//107 99//107
f 92//108 90//108 97//108 98//108
f 90//109 96//109 97//109
f 99//110 88//110 86//110
