# Blender v2.79 (sub 0) OBJ File: 'Emilia.blend'
# www.blender.org
mtllib DeadShrub.mtl
o Cylinder.003_Cylinder.002
v -0.022843 -0.052582 -0.173726
v -0.014528 0.989629 -0.034776
v 0.032669 0.986971 -0.021391
v 0.194051 -0.065405 0.096112
v 0.056064 0.995228 0.014622
v 0.032985 0.987052 0.051448
v -0.008741 0.905917 0.061957
v -0.037142 0.995281 0.048329
v -0.055589 0.993242 0.009405
v 0.659999 1.233991 0.304981
v 0.615548 1.240702 0.365303
v 0.171242 1.255666 0.124128
v 0.190428 1.289562 0.062575
v 0.213489 1.194248 0.115627
v 0.254303 1.246357 0.019098
v 0.421330 1.191734 0.236166
v 0.444210 1.272643 0.211228
v 0.468171 1.192646 0.187296
v 0.411123 1.231131 0.245199
v 0.471422 1.262493 0.189507
v 0.445181 1.175271 0.213228
v 0.420345 1.264260 0.233753
v 0.478426 1.230613 0.174661
v -0.014964 0.752302 -0.069442
v 0.043859 0.682514 -0.055723
v 0.015576 0.618023 0.077044
v -0.047741 0.676968 0.098960
v -0.101514 0.665182 0.076760
v -0.121657 0.653615 0.023935
v 0.024267 0.439206 -0.039312
v 0.058760 0.493559 0.101379
v 0.064187 0.161017 -0.059210
v 0.095179 0.161340 0.014626
v 0.064224 0.161024 0.088400
v -0.105614 0.168855 0.075111
v -0.127083 0.144202 0.015646
v -0.105734 0.168951 -0.045158
v -0.014697 0.159672 -0.087753
v 0.098175 -0.026851 -0.109009
v 0.126630 0.022018 0.008516
v 0.084311 0.022024 0.110668
v -0.022382 -0.022204 0.169892
v -0.135883 -0.033053 0.122315
v -0.176387 -0.016691 0.004396
v -0.146582 -0.042201 -0.112134
v 0.071332 0.271501 -0.064265
v 0.103252 0.287639 0.025349
v 0.076466 0.299355 0.102808
v -0.131539 0.315213 -0.050878
v -0.011573 0.848792 -0.034915
v 0.079487 0.891682 0.009963
v 0.041380 0.848532 0.050136
v -0.054452 0.771167 0.053157
v -0.072375 0.774011 0.010786
v -0.049363 0.825002 -0.022289
v -0.019417 0.174716 0.117628
v -0.170809 0.298637 0.067578
v -0.173796 0.300623 -0.006058
v -0.024573 0.284677 -0.096556
v -0.178699 0.258468 0.029691
v -0.140153 0.342978 0.071879
v -0.184075 0.373932 0.006081
v -0.376970 0.349657 0.024335
v -0.357393 0.417874 -0.005104
v -0.548632 0.468457 -0.011512
v -0.563098 0.438155 0.002642
v -0.627452 0.519579 -0.026039
v -0.681221 0.605926 -0.021321
v -0.676897 0.612227 -0.020607
v -0.678288 0.615588 -0.023880
v -0.686678 0.614007 -0.024371
v -0.679901 0.609099 -0.020132
v -0.592475 0.493413 -0.044024
v -0.518861 0.412326 -0.021597
v -0.499137 0.399340 0.032476
v -0.539364 0.384941 -0.010714
v -0.358060 0.371583 -0.017786
v -0.368049 0.387933 0.036267
v -0.688570 0.618047 -0.024028
v -0.684197 0.620406 -0.020855
v -0.687524 0.617236 -0.021481
v -0.684963 0.621727 -0.022988
v -0.684869 0.621467 -0.022722
v -0.688034 0.617485 -0.022327
v -0.688545 0.617734 -0.023172
v -0.684715 0.621149 -0.021362
v -0.687192 0.617162 -0.021058
v -0.688630 0.618031 -0.023573
v 0.055652 1.184134 0.085368
v 0.118315 1.129862 0.005607
v -0.050002 1.165768 0.045467
v 0.033069 1.128843 -0.082151
v -0.023377 1.224470 0.001463
v 0.018895 1.072176 0.086928
v 0.097884 1.136006 0.066435
v -0.085176 1.114264 -0.016015
v 0.085677 1.110330 -0.052709
v -0.219098 1.225350 -0.031337
v -0.050944 1.140916 -0.051843
v -0.221319 1.229832 0.009220
v -0.047485 0.525901 -0.090366
v 0.054734 0.501114 0.031774
v -0.032924 0.487688 0.095487
v -0.119365 0.460451 0.063390
v -0.145492 0.431567 0.008814
v -0.116049 0.507006 -0.039528
v 0.052218 0.617869 0.018758
v 0.105066 0.678074 -0.077181
v -0.031659 0.694259 -0.116327
v 0.025517 0.635200 -0.105164
v -0.087729 0.652998 -0.078668
v 0.025841 0.539242 -0.040861
v -0.092073 0.597827 -0.103951
v -0.021160 0.650479 -0.259448
v -0.086319 0.685789 -0.257291
v 0.004216 0.704395 -0.248172
v -0.074110 0.776530 -0.339994
v 0.075742 0.790279 0.058996
v -0.006291 0.755421 0.080577
v 0.473595 0.628939 -0.225817
v 0.428353 0.719496 -0.153675
v 0.481060 0.787064 -0.241595
v 0.443397 0.769555 -0.273447
v 0.430739 0.663871 -0.271105
v 0.395419 0.722881 -0.257341
v 0.473537 0.768033 -0.187187
v 0.463594 0.662235 -0.177746
v 0.845819 0.612873 -0.343782
v 0.194083 0.747072 -0.155665
v 0.196401 0.668559 -0.003723
v 0.219107 0.645956 -0.158482
v 0.698953 0.639931 -0.199501
v 0.718818 0.695423 -0.225450
v 0.652840 0.678340 -0.273664
v 0.687542 0.601159 -0.286292
v 0.848122 0.651210 -0.306180
v 0.830082 0.687717 -0.328762
v 0.814010 0.679925 -0.345708
v 0.820588 0.632374 -0.357053
v 0.811384 0.658143 -0.355950
v 0.841284 0.675636 -0.309734
v 0.850033 0.627760 -0.318232
v 0.949066 0.742178 -0.437092
v 0.953914 0.731127 -0.409214
v 1.021879 0.746621 -0.468340
v -0.045064 0.424719 -0.068852
v 0.221784 0.398397 0.248775
v -0.003681 0.340831 0.125836
v 0.141102 0.431564 0.159199
v 0.093531 0.401479 0.180477
v 0.150668 0.373773 0.157379
v 0.282348 0.373155 0.342716
v 0.178641 0.388719 0.272189
v 0.362446 0.389487 0.415604
v 0.256276 0.358339 0.372063
v 0.287385 0.339969 0.341407
v 0.207219 0.820113 -0.062363
v 0.046725 0.852233 -0.023470
v 0.073347 0.758282 -0.068610
v 0.213371 0.618945 -0.062340
vn 0.2350 0.0050 0.9720
vn -0.3143 0.0447 0.9483
vn -0.3137 -0.0056 -0.9495
vn 0.3614 -0.8905 -0.2763
vn 0.5409 -0.3935 -0.7434
vn 0.5145 0.4523 -0.7285
vn 0.3653 -0.9059 0.2142
vn -0.3653 0.0882 0.9267
vn 0.5057 -0.3923 -0.7683
vn 0.1883 0.9589 -0.2123
vn -0.3898 0.3642 -0.8458
vn -0.5557 0.2268 -0.7999
vn 0.3157 0.8812 0.3519
vn -0.1012 -0.2300 -0.9679
vn 0.8780 0.3276 -0.3488
vn 0.3614 0.3071 0.8804
vn 0.0915 0.2229 -0.9705
vn -0.2879 -0.7954 0.5333
vn 0.2415 -0.0707 0.9678
vn -0.4718 0.3117 -0.8248
vn -0.4671 0.1011 0.8784
vn 0.3089 -0.1255 0.9428
vn -0.0831 -0.8682 -0.4892
vn -0.7294 0.0110 -0.6841
vn -0.1525 0.0096 0.9883
vn -0.2546 -0.2332 0.9385
vn -0.8419 -0.5298 0.1026
vn 0.0111 0.1395 0.9902
vn -0.6334 -0.3854 -0.6711
vn -0.7731 -0.4556 0.4413
vn -0.0688 -0.3235 -0.9437
vn -0.1241 0.4680 0.8750
vn 0.6872 0.6324 0.3576
vn -0.6870 0.4690 0.5550
vn -0.3572 -0.1892 -0.9147
vn 0.3187 -0.0915 0.9434
vn -0.3656 -0.5448 -0.7546
vn 0.1455 0.4975 -0.8551
vn 0.9457 0.3243 -0.0195
vn -0.0739 0.1666 0.9833
vn 0.9249 -0.0224 -0.3796
vn 0.8442 0.0773 0.5305
vn -0.9216 0.1240 -0.3678
vn 0.6795 -0.1706 -0.7136
vn -0.9883 0.1511 0.0199
vn -0.9270 0.2141 -0.3078
vn 0.9620 -0.1497 -0.2282
vn -0.3512 -0.6044 -0.7150
vn -0.9971 0.0757 0.0060
vn 0.4596 -0.7477 -0.4793
vn 0.0079 0.7868 -0.6171
vn -0.1932 -0.7105 -0.6767
vn 0.0520 -0.3596 0.9316
vn 0.5590 0.2705 0.7838
vn -0.4255 0.9049 -0.0125
vn 0.3695 0.8674 0.3332
vn 0.7649 -0.2440 0.5961
vn -0.7875 -0.2656 0.5561
vn -0.9102 0.0973 -0.4025
vn -0.9209 0.1877 0.3416
vn 0.5755 0.8159 0.0553
vn 0.8797 0.3016 -0.3677
vn 0.7957 -0.0618 -0.6025
vn -0.1431 0.9288 0.3418
vn 0.5826 -0.5318 -0.6146
vn 0.7613 0.1459 -0.6317
vn -0.4488 -0.8902 0.0780
vn 0.0284 -0.8445 0.5348
vn -0.3327 -0.0308 -0.9425
vn 0.7090 0.0044 0.7052
vn 0.7240 0.1330 -0.6768
vn 0.7526 0.0828 0.6532
vn -0.9099 0.0757 0.4078
vn 0.0957 0.9905 0.0989
vn -0.7918 0.0846 -0.6048
vn -0.0120 -0.8819 0.4714
vn -0.0548 -0.9981 0.0276
vn 0.0739 -0.9434 0.3232
vn 0.2375 0.9596 -0.1509
vn -0.4275 0.7634 0.4842
vn -0.4705 -0.3112 0.8257
vn -0.4776 0.4027 0.7808
vn -0.0060 0.6724 -0.7402
vn 0.4583 -0.1020 -0.8830
vn 0.6527 -0.7476 -0.1228
vn -0.1546 -0.3506 0.9237
vn -0.1747 0.9127 0.3695
vn 0.3646 0.7610 -0.5366
vn -0.2376 -0.8891 0.3911
vn 0.1189 -0.8889 -0.4424
vn -0.3814 0.3949 0.8358
vn -0.4573 -0.3779 0.8050
vn -0.3930 0.3793 0.8377
vn -0.2374 -0.8648 -0.4425
vn 0.3924 0.7579 0.5211
vn -0.1571 -0.9191 -0.3613
vn -0.9117 0.3127 -0.2665
vn 0.2899 0.0215 0.9568
vn 0.0212 -0.1756 -0.9842
vn -0.8575 0.4144 0.3049
vn 0.4033 -0.6704 0.6229
vn -0.4332 0.1380 -0.8907
vn 0.5454 -0.0166 0.8380
vn -0.3821 0.3528 -0.8542
vn -0.4579 -0.4307 -0.7777
vn -0.7049 0.5573 -0.4389
vn 0.8507 0.2448 -0.4652
vn 0.5512 -0.7754 0.3079
vn -0.3774 0.1148 0.9189
vn -0.9222 0.2796 -0.2672
vn -0.9214 0.2329 0.3110
vn -0.4154 0.2526 0.8739
vn 0.3822 0.2187 0.8978
vn 0.9062 0.1897 0.3778
vn 0.9078 0.2403 -0.3438
vn 0.3645 0.3202 -0.8744
vn -0.3330 0.0174 0.9428
vn 0.6227 0.7387 0.2579
vn 0.2289 0.0220 -0.9732
vn 0.2689 0.1722 0.9477
vn 0.5274 0.0889 0.8449
vn -0.2632 0.8292 -0.4931
vn 0.0519 0.3908 -0.9190
vn 0.3251 -0.0518 -0.9442
vn 0.9337 -0.0515 -0.3542
vn 0.9263 -0.1055 0.3616
vn 0.1062 0.6727 0.7323
vn -0.4275 -0.1631 0.8892
vn -0.4223 -0.1038 -0.9005
vn -0.8394 -0.3124 -0.4447
vn 0.6827 0.4636 -0.5648
vn -0.0610 -0.3288 -0.9424
vn 0.0892 0.2620 -0.9609
vn -0.0526 -0.2860 0.9568
vn -0.6945 -0.1501 -0.7036
vn -0.6576 0.4102 0.6319
vn -0.7798 -0.3864 0.4925
vn 0.1300 0.2115 -0.9687
vn -0.4748 0.3560 -0.8049
vn 0.1416 0.8789 0.4555
vn -0.2681 -0.7021 -0.6597
vn -0.7650 -0.4768 0.4329
vn -0.3051 -0.6210 0.7220
vn 0.3149 0.3370 0.8873
vn -0.6608 -0.4964 -0.5629
vn 0.6099 0.5261 -0.5927
vn -0.7348 -0.6630 0.1432
vn -0.5832 -0.4327 0.6875
vn 0.0389 0.1027 -0.9940
vn -0.6901 -0.6602 -0.2966
vn 0.0062 0.1040 0.9946
vn 0.1095 0.5661 -0.8170
vn -0.8367 -0.4556 0.3039
vn -0.8619 -0.0769 0.5013
vn -0.2038 0.5735 -0.7935
vn 0.8453 -0.3868 0.3686
vn 0.2967 -0.3767 -0.8776
vn -0.5370 -0.0318 0.8430
vn 0.8272 -0.4267 -0.3657
vn -0.6614 -0.2695 -0.7000
vn 0.5164 -0.2552 0.8174
vn 0.0441 0.8341 0.5499
vn -0.3705 0.1344 0.9191
vn -0.4865 -0.6901 0.5358
vn 0.4968 -0.0968 -0.8625
vn -0.3518 -0.0373 0.9353
vn 0.9253 -0.0204 -0.3788
vn -0.5516 -0.1861 -0.8131
vn 0.9643 -0.1367 -0.2269
vn 0.3345 0.0089 0.9424
vn -0.9251 0.0654 0.3739
vn 0.6076 0.4164 -0.6764
vn 0.5873 0.7790 0.2197
vn -0.9641 0.0736 -0.2551
vn -0.5842 -0.6497 -0.4864
vn 0.9167 -0.2605 -0.3031
vn -0.5938 -0.1360 -0.7930
vn -0.3677 0.8480 0.3817
vn -0.4332 -0.8606 -0.2676
vn -0.4600 -0.0818 -0.8841
vn 0.5638 -0.3407 0.7524
vn 0.2235 -0.8913 0.3946
vn 0.5675 0.2022 0.7982
vn -0.0230 0.1788 -0.9836
vn 0.2990 0.6721 -0.6774
vn 0.2519 0.3567 0.8996
vn -0.0220 0.8936 0.4483
vn -0.4610 -0.0787 -0.8839
vn -0.4476 -0.1220 -0.8859
vn -0.3717 0.4314 -0.8221
vn -0.1194 0.9683 -0.2193
vn 0.7431 -0.3712 0.5568
vn 0.0945 0.9310 0.3526
vn -0.2271 -0.4441 -0.8667
vn -0.6326 0.3907 -0.6687
vn -0.9445 0.0746 0.3199
vn -0.3287 0.1055 -0.9385
vn 0.3394 0.2306 -0.9119
vn -0.3627 0.1309 0.9227
vn -0.0782 0.6325 0.7706
vn -0.0348 -0.6013 0.7983
vn 0.8542 0.1535 -0.4968
vn -0.5223 0.0716 0.8498
vn -0.4586 -0.8600 0.2237
vn -0.1987 0.8887 0.4132
vn -0.2967 -0.7268 -0.6195
vn 0.8488 0.1488 -0.5073
vn 0.6530 0.1285 -0.7464
vn -0.3396 0.9259 0.1657
vn -0.0463 0.6680 -0.7428
vn 0.4192 -0.0515 0.9064
vn 0.3556 -0.7900 0.4994
vn 0.5670 0.3415 0.7496
usemtl Bark
s off
f 6//1 7//1 52//1
f 7//2 8//2 53//2
f 2//3 50//3 55//3
f 18//4 10//4 21//4
f 23//5 10//5 18//5
f 20//6 10//6 23//6
f 90//7 14//7 95//7
f 89//8 12//8 91//8
f 15//9 23//9 18//9
f 13//10 17//10 20//10
f 55//11 24//11 111//11
f 158//12 129//12 159//12
f 126//13 133//13 122//13
f 123//14 134//14 125//14
f 39//15 40//15 4//15
f 41//16 42//16 4//16
f 64//17 74//17 65//17
f 63//18 75//18 76//18
f 48//19 148//19 56//19
f 55//20 50//20 24//20
f 7//21 53//21 119//21
f 48//22 56//22 34//22
f 63//23 76//23 77//23
f 49//24 58//24 62//24
f 61//25 78//25 57//25
f 57//26 78//26 63//26
f 67//27 68//27 71//27
f 66//28 69//28 72//28
f 67//29 71//29 73//29
f 76//30 66//30 67//30
f 76//31 73//31 74//31
f 75//32 65//32 66//32
f 70//33 86//33 69//33
f 87//34 86//34 88//34
f 2//35 99//35 92//35
f 95//36 89//36 94//36
f 96//37 98//37 99//37
f 99//38 98//38 93//38
f 102//39 26//39 31//39
f 26//40 103//40 31//40
f 107//41 102//41 112//41
f 107//42 26//42 102//42
f 105//43 29//43 106//43
f 116//44 114//44 117//44
f 115//45 111//45 117//45
f 111//46 113//46 29//46
f 112//47 110//47 107//47
f 114//48 115//48 117//48
f 111//49 115//49 113//49
f 101//50 114//50 112//50
f 157//51 129//51 158//51
f 135//52 139//52 128//52
f 127//53 132//53 121//53
f 136//54 144//54 141//54
f 137//55 143//55 138//55
f 133//56 141//56 137//56
f 142//57 144//57 136//57
f 141//58 137//58 138//58 140//58 139//58 128//58 142//58 136//58
f 105//59 106//59 49//59
f 61//60 104//60 105//60
f 31//61 149//61 102//61
f 46//62 30//62 47//62
f 151//63 147//63 156//63
f 147//64 155//64 152//64
f 150//65 153//65 155//65
f 149//66 147//66 151//66
f 156//67 155//67 153//67
f 156//68 154//68 155//68
f 159//69 108//69 25//69
f 21//70 18//70 23//70 20//70 17//70 22//70 19//70 16//70
f 5//71 51//71 158//71 3//71
f 52//72 51//72 5//72 6//72
f 9//73 54//73 53//73 8//73
f 11//74 10//74 17//74 22//74
f 55//75 54//75 9//75 2//75
f 132//76 127//76 120//76 135//76
f 1//77 39//77 4//77 42//77 43//77 44//77 45//77
f 11//78 16//78 21//78 10//78
f 20//79 17//79 10//79
f 12//80 13//80 93//80 91//80
f 19//81 16//81 11//81
f 22//82 19//82 11//82
f 13//83 15//83 92//83 93//83
f 97//84 92//84 15//84
f 15//85 14//85 90//85 97//85
f 12//86 89//86 95//86 14//86
f 22//87 17//87 13//87 12//87
f 20//88 23//88 15//88 13//88
f 14//89 21//89 16//89
f 18//90 21//90 14//90 15//90
f 12//91 19//91 22//91
f 19//92 12//92 14//92 16//92
f 53//93 28//93 27//93 119//93
f 120//94 124//94 135//94
f 126//95 122//95 157//95 118//95
f 124//96 120//96 160//96 131//96
f 111//97 29//97 54//97 55//97
f 119//98 27//98 26//98 118//98
f 24//99 159//99 25//99
f 29//100 28//100 53//100 54//100
f 127//101 130//101 160//101 120//101
f 129//102 123//102 125//102
f 130//103 127//103 121//103
f 38//104 1//104 45//104 37//104
f 101//105 106//105 113//105
f 24//106 109//106 111//106
f 47//107 30//107 151//107
f 48//108 47//108 151//108
f 148//109 103//109 104//109
f 37//110 45//110 44//110 36//110
f 36//111 44//111 43//111 35//111
f 43//112 42//112 56//112 35//112
f 56//113 42//113 41//113 34//113
f 41//114 40//114 33//114 34//114
f 40//115 39//115 32//115 33//115
f 39//116 1//116 38//116 32//116
f 57//117 56//117 148//117 61//117
f 4//118 40//118 41//118
f 158//119 50//119 2//119 3//119
f 119//120 118//120 52//120 7//120
f 121//121 126//121 118//121 130//121
f 123//122 129//122 157//122 122//122
f 158//123 159//123 24//123 50//123
f 46//124 32//124 38//124 59//124
f 33//125 32//125 46//125 47//125
f 34//126 33//126 47//126 48//126
f 75//127 78//127 64//127 65//127
f 56//128 57//128 35//128
f 59//129 38//129 37//129 49//129
f 58//130 37//130 36//130 60//130
f 74//131 73//131 65//131
f 77//132 76//132 74//132
f 64//133 77//133 74//133
f 63//134 78//134 75//134
f 49//135 37//135 58//135
f 105//136 62//136 61//136
f 57//137 60//137 36//137 35//137
f 77//138 64//138 62//138 58//138
f 105//139 49//139 62//139
f 78//140 61//140 62//140 64//140
f 77//141 58//141 60//141 63//141
f 72//142 68//142 67//142 66//142
f 60//143 57//143 63//143
f 70//144 69//144 66//144 65//144
f 76//145 67//145 73//145
f 71//146 70//146 65//146 73//146
f 87//147 88//147 79//147 72//147
f 76//148 75//148 66//148
f 71//149 79//149 70//149
f 80//150 82//150 70//150 69//150
f 86//151 87//151 72//151 69//151
f 86//152 70//152 79//152 88//152
f 87//153 88//153 71//153 68//153
f 91//154 96//154 9//154 8//154
f 92//155 99//155 93//155
f 95//156 6//156 5//156 90//156
f 92//157 97//157 3//157 2//157
f 91//158 8//158 7//158 94//158
f 97//159 90//159 5//159 3//159
f 96//160 99//160 2//160 9//160
f 94//161 7//161 6//161 95//161
f 100//162 91//162 93//162 98//162
f 94//163 89//163 91//163
f 100//164 98//164 96//164 91//164
f 30//165 146//165 101//165 112//165
f 28//166 104//166 103//166 27//166
f 30//167 112//167 102//167
f 106//168 101//168 146//168
f 25//169 107//169 110//169
f 26//170 27//170 103//170
f 29//171 105//171 104//171 28//171
f 110//172 109//172 24//172 25//172
f 116//173 117//173 109//173 110//173
f 106//174 29//174 113//174
f 115//175 114//175 101//175 113//175
f 116//176 110//176 112//176 114//176
f 129//177 131//177 108//177 159//177
f 109//178 117//178 111//178
f 160//179 108//179 131//179
f 125//180 124//180 131//180 129//180
f 132//181 142//181 136//181
f 142//182 132//182 135//182 128//182
f 136//183 141//183 133//183 132//183
f 134//184 135//184 124//184 125//184
f 134//185 123//185 122//185 133//185
f 132//186 133//186 126//186 121//186
f 144//187 143//187 137//187 141//187
f 140//188 139//188 135//188 134//188
f 139//189 140//189 143//189
f 134//190 138//190 140//190
f 138//191 134//191 133//191 137//191
f 144//192 142//192 128//192 145//192
f 143//193 144//193 145//193
f 143//194 145//194 128//194 139//194
f 140//195 138//195 143//195
f 120//196 127//196 121//196 126//196 122//196 123//196 125//196 124//196
f 146//197 59//197 49//197 106//197
f 30//198 46//198 59//198 146//198
f 148//199 104//199 61//199
f 150//200 149//200 31//200 103//200
f 150//201 148//201 48//201 151//201
f 151//202 30//202 102//202 149//202
f 103//203 148//203 150//203
f 153//204 150//204 151//204 156//204
f 155//205 147//205 149//205 150//205
f 160//206 107//206 25//206 108//206
f 147//207 152//207 156//207
f 156//208 152//208 154//208
f 152//209 155//209 154//209
f 51//210 157//210 158//210
f 118//211 26//211 130//211
f 130//212 26//212 107//212 160//212
f 118//213 157//213 51//213 52//213
l 82 83
l 85 84
l 81 84
