# Blender v2.79 (sub 0) OBJ File: 'BaiscTreeV1.blend'
# www.blender.org
mtllib Grass1.mtl
o Plane
v -0.152329 0.885557 -2.506460
v -0.119556 0.004883 -0.695185
v -0.191903 0.896339 -1.565415
v 0.731353 -0.151258 -0.540691
v -0.091563 0.982086 -2.432653
v -0.320754 1.051306 -1.990259
v -0.246127 1.016535 -2.388484
v -0.576573 -0.270680 -0.537207
v -0.159343 0.951997 -2.466616
v -0.172933 0.471652 -1.042005
v -0.458017 0.886439 -1.556656
v 0.061342 0.976168 -1.537264
v 0.207094 0.562388 -1.035723
v -0.514392 0.419173 -1.005675
v -0.166613 0.966919 -2.029115
v 0.002557 1.034213 -2.041139
v -2.469423 0.551306 1.377077
v -0.756148 -0.083554 0.277132
v -1.389657 0.624768 0.783303
v -0.881191 -0.106515 -0.515174
v -2.277808 0.738888 1.078111
v -1.660684 0.807486 1.235818
v -2.072558 0.770160 1.339042
v -0.196033 -0.220392 0.804531
v -2.251727 0.638670 1.216161
v -1.000561 0.293880 0.539433
v -1.256844 0.719954 1.118726
v -1.534596 0.762050 0.505323
v -1.133493 0.428845 0.119780
v -0.767636 0.355046 0.886163
v -1.807717 0.720471 0.988176
v -1.932414 0.839291 0.813020
v 2.080039 0.507193 1.397388
v 0.551901 -0.115899 0.110231
v 1.237986 0.751733 0.650758
v -0.049985 -0.191764 0.717512
v 1.728994 0.791604 1.223561
v 1.667865 0.901189 0.858708
v 1.886239 0.845511 1.105959
v 0.834013 -0.071272 -0.579671
v 1.791894 0.800641 1.153471
v 0.790595 0.286582 0.311842
v 1.374755 0.819846 0.448913
v 1.025494 0.847111 0.894118
v 0.558216 0.381733 0.748398
v 0.961733 0.369871 -0.016894
v 1.580732 0.832691 0.990605
v 1.421898 0.874485 1.066063
v 1.502521 0.345072 -1.070986
v 0.176360 -0.090579 -0.187167
v 0.638543 0.512083 -0.508172
v 0.213175 -0.156719 0.021625
v 1.305537 0.586113 -0.727523
v 0.831340 0.635080 -0.854672
v 1.093599 0.605416 -0.973985
v 0.103716 -0.325369 -0.395626
v 1.232928 0.536669 -0.855796
v 0.414849 0.246774 -0.364235
v 0.518719 0.551847 -0.735621
v 0.788711 0.541604 -0.289420
v 0.522716 0.290787 -0.029120
v 0.192380 0.278926 -0.611651
v 0.944882 0.558679 -0.680231
v 1.073166 0.605888 -0.498340
v -1.884497 0.371258 -0.804133
v -0.160487 -0.163045 -0.057907
v -0.964718 0.568863 -0.363671
v -0.057336 -0.174298 -0.198799
v -1.604493 0.558318 -0.832609
v -1.421233 0.676898 -0.339685
v -1.686919 0.597868 -0.567325
v -0.152751 -0.098007 0.117957
v -1.677377 0.472969 -0.740458
v -0.606228 0.319629 -0.200058
v -1.138733 0.651407 -0.115721
v -0.856692 0.676944 -0.607774
v -0.362858 0.433201 -0.479320
v -0.753415 0.371100 0.119131
v -1.314853 0.596709 -0.554971
v -1.265759 0.688158 -0.733742
v -0.195223 0.121657 1.342201
v 0.003352 -0.103794 0.408751
v 0.011135 0.224212 0.791646
v -0.161761 -0.144870 0.335372
v -0.144337 0.293415 1.163203
v 0.151803 0.347129 1.010990
v 0.019403 0.291370 1.228913
v 0.176505 -0.001877 0.300584
v -0.055166 0.230634 1.250864
v -0.025842 0.141088 0.596597
v 0.222562 0.275805 0.808371
v -0.188610 0.278484 0.802446
v -0.280777 0.110141 0.616395
v 0.218285 0.196300 0.592616
v -0.027543 0.259812 0.994494
v -0.144239 0.313783 0.968282
vn 0.1983 0.9386 0.2822
vn -0.3969 0.4409 -0.8050
vn -0.0317 0.7696 0.6378
vn -0.2324 0.7342 0.6379
vn -0.0790 0.5529 0.8295
vn -0.0379 0.5759 0.8166
vn -0.3305 0.9340 0.1356
vn 0.5261 0.8504 0.0010
vn 0.1870 0.5197 -0.8336
vn -0.3771 0.9255 -0.0353
vn 0.0795 0.9400 -0.3319
vn -0.4878 0.8501 -0.1984
vn 0.4191 0.8099 -0.4103
vn 0.6577 0.7526 0.0317
vn 0.8167 0.5641 -0.1217
vn 0.5802 0.6661 -0.4687
vn 0.3659 0.8865 0.2833
vn -0.2505 0.9142 -0.3186
vn 0.0966 0.8140 0.5727
vn 0.1332 0.8412 0.5241
vn -0.3781 0.9177 0.1220
vn 0.0547 0.6695 0.7408
vn -0.6446 0.7474 -0.1608
vn -0.4669 0.7237 -0.5083
vn -0.5976 0.6351 -0.4894
vn -0.7696 0.5787 -0.2698
vn 0.0792 0.9459 -0.3147
vn -0.1836 0.9042 0.3857
vn 0.4062 0.7861 0.4659
vn 0.1824 0.9816 0.0570
vn -0.0551 0.9502 0.3066
vn 0.5146 0.8501 -0.1122
vn -0.4923 0.7351 0.4662
vn -0.6311 0.7510 0.1943
vn -0.7659 0.6011 0.2282
vn -0.8321 0.4335 0.3460
vn -0.2099 0.9769 -0.0412
vn 0.2302 0.9362 0.2655
vn 0.2370 0.8539 -0.4633
vn -0.1042 0.9667 -0.2338
vn 0.2152 0.9548 -0.2052
vn -0.2086 0.7877 -0.5797
vn 0.5379 0.8362 0.1071
vn 0.2820 0.8007 0.5285
vn 0.5390 0.6005 0.5907
vn 0.6717 0.7407 0.0149
vn -0.1153 0.9142 0.3885
vn 0.0181 0.8864 -0.4626
vn -0.4970 0.7964 0.3445
vn -0.4395 0.8299 0.3437
vn -0.2936 0.9018 -0.3171
vn -0.6432 0.7617 -0.0775
vn -0.2054 0.9169 -0.3423
vn 0.0056 0.8338 -0.5521
vn -0.0232 0.6803 -0.7326
vn -0.4175 0.6731 -0.6105
vn 0.3261 0.9274 -0.1834
vn -0.5039 0.8636 -0.0154
vn -0.1372 0.7339 0.6652
vn 0.4364 0.8911 0.1246
usemtl Grass1
s off
f 11//1 3//1 15//1 6//1
f 7//2 9//2 1//2
f 14//3 10//3 3//3 11//3
f 10//4 13//4 12//4 3//4
f 2//5 4//5 13//5 10//5
f 8//6 2//6 10//6 14//6
f 3//7 12//7 16//7 15//7
f 6//8 15//8 9//8 7//8
f 9//9 5//9 1//9
f 15//10 16//10 5//10 9//10
f 27//11 19//11 31//11 22//11
f 23//12 25//12 17//12
f 30//13 26//13 19//13 27//13
f 26//14 29//14 28//14 19//14
f 18//15 20//15 29//15 26//15
f 24//16 18//16 26//16 30//16
f 19//17 28//17 32//17 31//17
f 22//18 31//18 25//18 23//18
f 25//19 21//19 17//19
f 31//20 32//20 21//20 25//20
f 43//21 35//21 47//21 38//21
f 39//22 41//22 33//22
f 46//23 42//23 35//23 43//23
f 42//24 45//24 44//24 35//24
f 34//25 36//25 45//25 42//25
f 40//26 34//26 42//26 46//26
f 35//27 44//27 48//27 47//27
f 38//28 47//28 41//28 39//28
f 41//29 37//29 33//29
f 47//30 48//30 37//30 41//30
usemtl GRass2
f 59//31 51//31 63//31 54//31
f 55//32 57//32 49//32
f 62//33 58//33 51//33 59//33
f 58//34 61//34 60//34 51//34
f 50//35 52//35 61//35 58//35
f 56//36 50//36 58//36 62//36
f 51//37 60//37 64//37 63//37
f 54//38 63//38 57//38 55//38
f 57//39 53//39 49//39
f 63//40 64//40 53//40 57//40
f 75//41 67//41 79//41 70//41
f 71//42 73//42 65//42
f 78//43 74//43 67//43 75//43
f 74//44 77//44 76//44 67//44
f 66//45 68//45 77//45 74//45
f 72//46 66//46 74//46 78//46
f 67//47 76//47 80//47 79//47
f 70//48 79//48 73//48 71//48
f 73//49 69//49 65//49
f 79//50 80//50 69//50 73//50
f 91//51 83//51 95//51 86//51
f 87//52 89//52 81//52
f 94//53 90//53 83//53 91//53
f 90//54 93//54 92//54 83//54
f 82//55 84//55 93//55 90//55
f 88//56 82//56 90//56 94//56
f 83//57 92//57 96//57 95//57
f 86//58 95//58 89//58 87//58
f 89//59 85//59 81//59
f 95//60 96//60 85//60 89//60
