# Blender v2.79 (sub 0) OBJ File: 'BaiscTreeV1.blend'
# www.blender.org
mtllib RockV1.mtl
o Icosphere
v 1.284204 0.472730 1.420421
v -0.230434 0.401703 0.866549
v -0.320893 0.491284 -0.497872
v 1.096403 0.431059 -1.417034
v 2.350161 0.221675 0.186541
v 0.823555 1.089506 0.081598
v 2.180553 -0.435658 0.560167
v 2.301084 -0.257562 -0.382719
v 0.871064 -0.280694 1.730196
v 1.725179 -0.270819 1.335644
v -0.623838 -0.285038 0.873996
v -0.100510 -0.283814 1.380771
v -0.127618 -0.252990 -1.169628
v -0.661402 -0.239812 -0.341851
v 1.681667 -0.311773 -1.276155
v 0.822524 -0.438157 -1.317890
v 1.899837 0.455039 1.077988
v 0.526137 0.614463 1.429679
v -0.356238 0.586064 0.174630
v 0.021465 0.557647 -1.067940
v 1.985094 0.614866 -0.781776
v 1.158237 0.894098 0.832509
v 1.869545 0.787715 0.175075
v 0.226784 0.974084 0.616448
v 0.356185 1.020072 -0.177492
v 1.042735 1.130181 -0.657435
v -0.869705 0.094935 0.201154
v -1.352371 0.092858 0.286856
v -1.519947 0.000960 -0.215993
v -1.172541 0.030842 -0.710139
v -0.724288 -0.034620 -0.270555
v -1.122303 0.371891 -0.127067
v -0.730294 -0.097885 -0.118031
v -0.728571 -0.116868 -0.391621
v -1.057316 -0.099563 0.228146
v -0.792544 -0.071468 0.147465
v -1.485782 -0.110034 0.225428
v -1.299885 -0.088213 0.266555
v -1.489026 -0.099588 -0.486050
v -1.553902 -0.089866 -0.202314
v -0.958598 -0.111876 -0.662453
v -1.091373 -0.093445 -0.694312
v -0.731123 -0.002912 0.141137
v -1.066716 0.140081 0.251828
v -1.549278 0.135168 -0.123406
v -1.352298 -0.027062 -0.623186
v -0.781742 0.093190 -0.523102
v -0.942594 0.211030 0.023596
v -0.830937 0.261598 -0.222830
v -1.222674 0.222512 0.088754
v -1.306786 0.245874 -0.211013
v -1.078480 0.249347 -0.398353
v -1.175102 0.023528 0.881087
v -1.421603 0.035190 0.951246
v -1.483157 -0.013871 0.619779
v -1.330774 -0.006626 0.379464
v -1.120715 -0.038397 0.614572
v -1.322151 0.184540 0.716932
v -1.116177 -0.097404 0.710046
v -1.115765 -0.105153 0.533633
v -1.252214 -0.084037 0.918202
v -1.145969 -0.079207 0.852375
v -1.525589 -0.087069 0.906819
v -1.382607 -0.076530 0.954823
v -1.502102 -0.102428 0.519400
v -1.552156 -0.081647 0.677693
v -1.188672 -0.113311 0.381967
v -1.346961 -0.104784 0.412589
v -1.121163 -0.027414 0.825838
v -1.277161 0.050971 0.916253
v -1.519252 0.048842 0.750710
v -1.434028 -0.006265 0.493543
v -1.150851 0.031387 0.470107
v -1.247709 0.068125 0.795511
v -1.178651 0.113810 0.651513
v -1.360819 0.095956 0.823423
v -1.388547 0.113342 0.688923
v -1.297533 0.120673 0.553200
v -1.903817 -0.003735 0.432327
v -1.879330 0.004838 0.350392
v -1.719765 -0.022178 0.318620
v -1.679663 -0.023199 0.388135
v -1.812022 -0.004235 0.482463
v -1.828678 0.091120 0.407310
v -1.855031 -0.048016 0.484212
v -1.754093 -0.040359 0.489382
v -1.904275 -0.032235 0.393520
v -1.899871 -0.032922 0.449635
v -1.854352 -0.040038 0.321097
v -1.895112 -0.031742 0.343404
v -1.688086 -0.054488 0.327855
v -1.759177 -0.039693 0.284581
v -1.680724 -0.059365 0.436437
v -1.656510 -0.053675 0.410359
v -1.887357 0.012668 0.469981
v -1.889446 0.012400 0.384847
v -1.809627 0.013527 0.290781
v -1.689132 -0.018549 0.381091
v -1.714066 0.002851 0.453454
v -1.867637 0.061931 0.423917
v -1.812887 0.048031 0.456419
v -1.844300 0.028465 0.358552
v -1.740687 0.049181 0.378964
v -1.734532 0.054551 0.414904
vt 0.195553 0.269511
vt 0.283107 0.199579
vt 0.288859 0.331834
vt 0.186172 0.542108
vt 0.168266 0.387448
vt 0.279085 0.463691
vt 0.410991 0.617539
vt 0.302690 0.586973
vt 0.387227 0.481617
vt 0.605683 0.438745
vt 0.505729 0.572739
vt 0.470360 0.411748
vt 0.442336 0.153506
vt 0.545727 0.291625
vt 0.408054 0.267040
vt 0.373052 0.409446
vt 0.594060 0.098206
vt 0.764154 0.316842
vt 0.764154 0.551299
vt 0.588979 0.712045
vt 0.365910 0.778482
vt 0.094278 0.683826
vt 0.000119 0.525527
vt 0.006101 0.269825
vt 0.160745 0.093413
vt 0.370875 0.000119
vt 0.144853 0.825419
vt 0.174345 0.822650
vt 0.142729 0.861905
vt 0.061960 0.850958
vt 0.109914 0.833999
vt 0.100564 0.873251
vt 0.062109 0.953654
vt 0.066253 0.922568
vt 0.108588 0.919940
vt 0.161412 0.979787
vt 0.135109 0.987500
vt 0.150155 0.928044
vt 0.223729 0.881887
vt 0.203330 0.929780
vt 0.169868 0.891278
vt 0.130004 0.896596
vt 0.252538 0.903411
vt 0.214344 0.992451
vt 0.181264 0.999881
vt 0.101731 0.999881
vt 0.041263 0.965953
vt 0.000119 0.858700
vt 0.038404 0.809012
vt 0.104671 0.778720
vt 0.177812 0.801383
vt 0.219142 0.847997
vt 0.295771 0.800511
vt 0.306688 0.789746
vt 0.306062 0.815805
vt 0.275342 0.835139
vt 0.286560 0.815103
vt 0.298374 0.832750
vt 0.321493 0.873162
vt 0.297730 0.860550
vt 0.315109 0.844653
vt 0.364439 0.849666
vt 0.345998 0.867552
vt 0.336485 0.837524
vt 0.345473 0.795748
vt 0.357799 0.820296
vt 0.329418 0.817436
vt 0.316389 0.832303
vt 0.368300 0.791092
vt 0.392951 0.827152
vt 0.379223 0.865556
vt 0.343867 0.893438
vt 0.302989 0.891472
vt 0.255234 0.863235
vt 0.252776 0.823455
vt 0.269101 0.792771
vt 0.297762 0.778720
vt 0.330769 0.778720
vt 0.776532 0.015561
vt 0.783746 0.013685
vt 0.784999 0.022824
vt 0.773553 0.031923
vt 0.775323 0.025079
vt 0.781230 0.032474
vt 0.798504 0.050492
vt 0.782740 0.043373
vt 0.796068 0.034448
vt 0.812008 0.040188
vt 0.809644 0.041094
vt 0.798504 0.029969
vt 0.796176 0.012132
vt 0.808022 0.025387
vt 0.792606 0.020542
vt 0.788694 0.026459
vt 0.810499 0.011400
vt 0.823064 0.030919
vt 0.822110 0.040516
vt 0.807313 0.055961
vt 0.787856 0.055961
vt 0.768359 0.044061
vt 0.764392 0.032529
vt 0.766258 0.019358
vt 0.775037 0.007429
vt 0.789146 0.000119
vn 0.3068 0.8035 0.5101
vn -0.5578 0.6635 0.4987
vn -0.5658 0.8118 -0.1442
vn -0.1343 0.7244 -0.6762
vn 0.7623 0.6468 -0.0248
vn 0.2640 0.9556 0.1309
vn 0.4668 0.8784 -0.1023
vn 0.3054 0.7113 -0.6331
vn -0.1520 0.9883 0.0093
vn -0.3630 0.8757 -0.3183
vn -0.5317 0.8167 -0.2243
vn -0.1634 0.9861 0.0305
vn -0.5335 0.8449 -0.0380
vn -0.6761 0.6720 0.3020
vn 0.0276 0.9703 0.2402
vn -0.0167 0.9122 0.4095
vn 0.1597 0.8182 0.5522
vn 0.2640 0.9556 0.1310
vn 0.4091 0.8606 0.3034
vn 0.7433 0.6354 0.2092
vn 0.9390 0.2188 -0.2652
vn 0.8203 0.0360 -0.5709
vn 0.5253 0.2602 -0.8102
vn -0.3100 -0.0108 -0.9507
vn -0.1247 0.1460 -0.9814
vn -0.8478 0.2166 -0.4840
vn -0.9099 0.4015 -0.1044
vn -0.9453 0.3235 0.0412
vn -0.8319 0.4796 0.2791
vn -0.6175 0.3937 0.6809
vn -0.3333 0.1821 0.9251
vn 0.0756 0.3434 0.9361
vn 0.4815 0.1880 0.8560
vn 0.8596 -0.0257 0.5103
vn 0.8947 0.0227 0.4460
vn 0.0678 -0.1341 -0.9886
vn -0.8086 0.2644 -0.5256
vn -0.6449 0.3766 0.6650
vn 0.4137 0.1428 0.8991
vn 0.9754 -0.2026 0.0864
vn 0.6259 0.7452 0.2303
vn -0.0793 0.8571 0.5090
vn -0.4735 0.4277 -0.7700
vn -0.4546 0.7880 -0.4151
vn 0.9381 0.3441 -0.0393
vn 0.2192 0.9020 -0.3720
vn 0.2678 0.8584 -0.4376
vn 0.1613 0.7847 -0.5986
vn -0.3666 0.8242 -0.4315
vn -0.4013 0.7835 -0.4745
vn -0.7076 0.6226 -0.3342
vn -0.6184 0.7508 0.2320
vn -0.3571 0.9181 0.1718
vn -0.4183 0.8609 0.2896
vn 0.1744 0.7698 0.6139
vn 0.1203 0.9276 0.3538
vn 0.3053 0.8496 0.4301
vn 0.4321 0.8246 0.3650
vn 0.5352 0.7464 0.3956
vn 0.9403 0.3402 -0.0106
vn 0.9771 0.1584 -0.1421
vn 0.7434 -0.2094 -0.6352
vn 0.3794 0.2734 -0.8839
vn -0.3248 -0.3252 -0.8881
vn -0.3494 -0.6383 -0.6859
vn -0.6760 0.6620 -0.3239
vn -0.7985 0.2138 -0.5628
vn -0.9872 -0.0343 0.1556
vn -0.8087 0.4017 0.4296
vn 0.1331 -0.0722 0.9885
vn 0.1516 -0.0913 0.9842
vn 0.2295 -0.0868 0.9694
vn 0.2876 -0.1707 0.9424
vn 0.7346 -0.6364 0.2355
vn 0.9987 -0.0463 0.0201
vn 0.2373 0.0314 -0.9709
vn -0.9238 0.3119 -0.2219
vn -0.1946 -0.1648 0.9669
vn 0.3033 -0.1623 0.9390
vn 0.9976 -0.0682 0.0110
vn 0.6161 0.7790 -0.1168
vn 0.0060 0.9020 0.4317
vn -0.5600 0.6765 -0.4784
vn -0.4947 0.7434 -0.4501
vn 0.9327 0.3600 -0.0206
vn 0.3051 0.9019 -0.3059
vn 0.3369 0.8756 -0.3462
vn 0.1374 0.7863 -0.6024
vn -0.6040 0.7076 -0.3668
vn -0.5594 0.7586 -0.3342
vn -0.7131 0.6595 -0.2378
vn -0.7552 0.6119 0.2348
vn -0.3597 0.9131 0.1922
vn -0.3779 0.8929 0.2448
vn 0.3291 0.6638 0.6716
vn 0.2807 0.9384 0.2018
vn 0.3206 0.9238 0.2094
vn 0.5542 0.6792 0.4812
vn 0.4614 0.7576 0.4616
vn 0.9331 0.3592 -0.0167
vn 0.9739 0.2009 -0.1061
vn 0.9003 0.0293 -0.4343
vn 0.3340 0.4251 -0.8413
vn -0.7376 -0.1035 -0.6673
vn -0.5565 0.1755 -0.8121
vn -0.8165 0.5007 -0.2876
vn -0.7902 0.4387 -0.4280
vn -0.9765 0.1805 0.1175
vn -0.7637 0.5020 0.4060
vn 0.2228 0.1088 0.9688
vn 0.2733 0.0643 0.9598
vn 0.3432 0.0769 0.9361
vn 0.7203 0.0104 0.6936
vn 0.9182 -0.3203 0.2331
vn 0.9973 0.0739 -0.0017
vn -0.1968 -0.2842 -0.9383
vn -0.7867 0.5290 -0.3182
vn -0.3121 -0.0786 0.9468
vn 0.5275 -0.0866 0.8451
vn 0.9972 0.0751 -0.0010
vn -0.8558 0.4920 0.1598
vn -0.4775 0.8184 -0.3198
vn 0.4484 0.6502 -0.6134
vn 0.6430 0.6122 -0.4602
vn 0.2261 0.4374 0.8704
vn 0.2499 0.7662 0.5920
vn 0.3155 0.6443 0.6966
vn 0.8304 0.5047 0.2361
vn 0.3687 0.9080 -0.1988
vn 0.7794 0.5863 -0.2211
vn 0.7374 0.5490 -0.3935
vn 0.0346 0.6084 -0.7929
vn -0.1352 0.9508 -0.2787
vn -0.4450 0.7993 -0.4039
vn -0.6432 0.5637 -0.5182
vn -0.5407 0.6547 -0.5282
vn -0.8766 0.4694 -0.1058
vn -0.2290 0.6940 0.6826
vn -0.2162 0.7116 0.6685
vn -0.0484 0.4448 0.8943
vn 0.2122 0.5010 0.8390
vn 0.5996 0.1043 0.7935
vn 0.8714 0.3833 0.3061
vn 0.5116 -0.2176 -0.8312
vn 0.8119 0.4911 -0.3156
vn 0.7119 0.5885 -0.3833
vn 0.4307 0.4961 -0.7539
vn -0.3484 -0.2242 -0.9101
vn -0.6538 0.1234 -0.7465
vn -0.8382 0.4265 -0.3397
vn -0.9446 0.2808 -0.1699
vn -0.9420 0.2758 -0.1914
vn -0.9264 0.0913 0.3652
vn -0.6362 -0.1620 0.7543
vn -0.1257 0.1626 0.9787
vn 0.4221 0.7212 0.5493
vn 0.5407 0.3062 -0.7835
vn -0.3989 0.3352 -0.8535
vn -0.9931 -0.0887 0.0768
vn -0.0582 0.0969 0.9936
usemtl Rock
s off
f 1/1/1 17/2/1 22/3/1
f 2/4/2 18/5/2 24/6/2
f 3/7/3 19/8/3 25/9/3
f 4/10/4 20/11/4 26/12/4
f 5/13/5 21/14/5 23/15/5
f 23/15/6 26/12/6 6/16/6
f 23/15/7 21/14/7 26/12/7
f 21/14/8 4/10/8 26/12/8
f 26/12/9 25/9/9 6/16/9
f 26/12/10 20/11/10 25/9/10
f 20/11/11 3/7/11 25/9/11
f 25/9/12 24/6/12 6/16/12
f 25/9/13 19/8/13 24/6/13
f 19/8/14 2/4/14 24/6/14
f 24/6/15 22/3/15 6/16/15
f 24/6/16 18/5/16 22/3/16
f 18/5/17 1/1/17 22/3/17
f 22/3/18 23/15/18 6/16/18
f 22/3/19 17/2/19 23/15/19
f 17/2/20 5/13/20 23/15/20
f 8/17/21 21/14/21 5/13/21
f 8/17/22 15/18/22 21/14/22
f 15/18/23 4/10/23 21/14/23
f 16/19/24 20/11/24 4/10/24
f 16/19/25 13/20/25 20/11/25
f 13/20/26 3/7/26 20/11/26
f 14/21/27 19/8/27 3/7/27
f 14/21/28 11/22/28 19/8/28
f 11/22/29 2/4/29 19/8/29
f 12/23/30 18/5/30 2/4/30
f 12/23/31 9/24/31 18/5/31
f 9/24/32 1/1/32 18/5/32
f 10/25/33 17/2/33 1/1/33
f 10/25/34 7/26/34 17/2/34
f 7/26/35 5/13/35 17/2/35
f 15/18/36 16/19/36 4/10/36
f 13/20/37 14/21/37 3/7/37
f 11/22/38 12/23/38 2/4/38
f 9/24/39 10/25/39 1/1/39
f 7/26/40 8/17/40 5/13/40
f 27/27/41 43/28/41 48/29/41
f 28/30/42 44/31/42 50/32/42
f 29/33/43 45/34/43 51/35/43
f 30/36/44 46/37/44 52/38/44
f 31/39/45 47/40/45 49/41/45
f 49/41/46 52/38/46 32/42/46
f 49/41/47 47/40/47 52/38/47
f 47/40/48 30/36/48 52/38/48
f 52/38/49 51/35/49 32/42/49
f 52/38/50 46/37/50 51/35/50
f 46/37/51 29/33/51 51/35/51
f 51/35/52 50/32/52 32/42/52
f 51/35/53 45/34/53 50/32/53
f 45/34/54 28/30/54 50/32/54
f 50/32/55 48/29/55 32/42/55
f 50/32/56 44/31/56 48/29/56
f 44/31/57 27/27/57 48/29/57
f 48/29/58 49/41/58 32/42/58
f 48/29/59 43/28/59 49/41/59
f 43/28/60 31/39/60 49/41/60
f 34/43/61 47/40/61 31/39/61
f 34/43/62 41/44/62 47/40/62
f 41/44/63 30/36/63 47/40/63
f 42/45/64 46/37/64 30/36/64
f 42/45/65 39/46/65 46/37/65
f 39/46/66 29/33/66 46/37/66
f 40/47/67 45/34/67 29/33/67
f 40/47/68 37/48/68 45/34/68
f 37/48/69 28/30/69 45/34/69
f 38/49/70 44/31/70 28/30/70
f 38/49/71 35/50/71 44/31/71
f 35/50/72 27/27/72 44/31/72
f 36/51/73 43/28/73 27/27/73
f 36/51/74 33/52/74 43/28/74
f 33/52/75 31/39/75 43/28/75
f 41/44/76 42/45/76 30/36/76
f 39/46/77 40/47/77 29/33/77
f 37/48/78 38/49/78 28/30/78
f 35/50/79 36/51/79 27/27/79
f 33/52/80 34/43/80 31/39/80
f 53/53/81 69/54/81 74/55/81
f 54/56/82 70/57/82 76/58/82
f 55/59/83 71/60/83 77/61/83
f 56/62/84 72/63/84 78/64/84
f 57/65/85 73/66/85 75/67/85
f 75/67/86 78/64/86 58/68/86
f 75/67/87 73/66/87 78/64/87
f 73/66/88 56/62/88 78/64/88
f 78/64/89 77/61/89 58/68/89
f 78/64/90 72/63/90 77/61/90
f 72/63/91 55/59/91 77/61/91
f 77/61/92 76/58/92 58/68/92
f 77/61/93 71/60/93 76/58/93
f 71/60/94 54/56/94 76/58/94
f 76/58/95 74/55/95 58/68/95
f 76/58/96 70/57/96 74/55/96
f 70/57/97 53/53/97 74/55/97
f 74/55/98 75/67/98 58/68/98
f 74/55/99 69/54/99 75/67/99
f 69/54/100 57/65/100 75/67/100
f 60/69/101 73/66/101 57/65/101
f 60/69/102 67/70/102 73/66/102
f 67/70/103 56/62/103 73/66/103
f 68/71/104 72/63/104 56/62/104
f 68/71/105 65/72/105 72/63/105
f 65/72/106 55/59/106 72/63/106
f 66/73/107 71/60/107 55/59/107
f 66/73/108 63/74/108 71/60/108
f 63/74/109 54/56/109 71/60/109
f 64/75/110 70/57/110 54/56/110
f 64/75/111 61/76/111 70/57/111
f 61/76/112 53/53/112 70/57/112
f 62/77/113 69/54/113 53/53/113
f 62/77/114 59/78/114 69/54/114
f 59/78/115 57/65/115 69/54/115
f 67/70/116 68/71/116 56/62/116
f 65/72/117 66/73/117 55/59/117
f 63/74/118 64/75/118 54/56/118
f 61/76/119 62/77/119 53/53/119
f 59/78/120 60/69/120 57/65/120
f 79/79/121 95/80/121 100/81/121
f 80/82/122 96/83/122 102/84/122
f 81/85/123 97/86/123 103/87/123
f 82/88/124 98/89/124 104/90/124
f 83/91/125 99/92/125 101/93/125
f 101/93/126 104/90/126 84/94/126
f 101/93/127 99/92/127 104/90/127
f 99/92/128 82/88/128 104/90/128
f 104/90/129 103/87/129 84/94/129
f 104/90/130 98/89/130 103/87/130
f 98/89/131 81/85/131 103/87/131
f 103/87/132 102/84/132 84/94/132
f 103/87/133 97/86/133 102/84/133
f 97/86/134 80/82/134 102/84/134
f 102/84/135 100/81/135 84/94/135
f 102/84/136 96/83/136 100/81/136
f 96/83/137 79/79/137 100/81/137
f 100/81/138 101/93/138 84/94/138
f 100/81/139 95/80/139 101/93/139
f 95/80/140 83/91/140 101/93/140
f 86/95/141 99/92/141 83/91/141
f 86/95/142 93/96/142 99/92/142
f 93/96/143 82/88/143 99/92/143
f 94/97/144 98/89/144 82/88/144
f 94/97/145 91/98/145 98/89/145
f 91/98/146 81/85/146 98/89/146
f 92/99/147 97/86/147 81/85/147
f 92/99/148 89/100/148 97/86/148
f 89/100/149 80/82/149 97/86/149
f 90/101/150 96/83/150 80/82/150
f 90/101/151 87/102/151 96/83/151
f 87/102/152 79/79/152 96/83/152
f 88/103/153 95/80/153 79/79/153
f 88/103/154 85/104/154 95/80/154
f 85/104/155 83/91/155 95/80/155
f 93/96/156 94/97/156 82/88/156
f 91/98/157 92/99/157 81/85/157
f 89/100/158 90/101/158 80/82/158
f 87/102/159 88/103/159 79/79/159
f 85/104/160 86/95/160 83/91/160
