# Blender v2.79 (sub 0) OBJ File: 'BaiscTreeV1.blend'
# www.blender.org
mtllib RockV2.mtl
o Icosphere
v -0.269028 0.290664 0.917504
v -2.136386 0.406668 1.398532
v -2.927434 0.118360 -0.694380
v -0.329524 0.326189 -2.616885
v 2.493795 -0.167349 -0.792180
v -1.320493 1.266563 -0.111708
v 1.836737 -0.508430 1.323236
v 2.771749 -0.317526 -1.638522
v -0.387402 -0.206129 1.256227
v 0.412462 -0.415966 1.468630
v -2.994939 -0.179213 1.770953
v -1.993592 0.030051 2.048799
v -2.494698 -0.153817 -1.562078
v -3.210123 -0.217834 -0.211791
v 1.295601 -0.806394 -2.279435
v 0.071251 -0.838476 -2.656000
v 1.672274 -0.283450 1.504118
v -0.647952 0.323576 0.870725
v -3.248264 0.563611 0.347095
v -2.528084 0.435624 -1.537760
v 1.851342 0.553021 -1.748139
v -0.409461 0.758466 0.177774
v 0.693013 1.027614 -0.721047
v -1.523568 0.833178 0.737068
v -2.317271 0.736111 -0.748811
v -0.131308 1.323059 -1.129896
vt 0.195553 0.269511
vt 0.283107 0.199579
vt 0.288859 0.331834
vt 0.186172 0.542108
vt 0.168266 0.387448
vt 0.279085 0.463691
vt 0.410991 0.617539
vt 0.302690 0.586973
vt 0.387227 0.481617
vt 0.605683 0.438745
vt 0.505729 0.572739
vt 0.470360 0.411748
vt 0.442336 0.153506
vt 0.545727 0.291625
vt 0.408054 0.267040
vt 0.373052 0.409446
vt 0.594060 0.098206
vt 0.764154 0.316842
vt 0.764154 0.551299
vt 0.588979 0.712045
vt 0.365910 0.778482
vt 0.094278 0.683826
vt 0.000119 0.525527
vt 0.006101 0.269825
vt 0.160745 0.093413
vt 0.370875 0.000119
vn 0.0943 0.8494 0.5193
vn 0.2821 0.6659 0.6907
vn -0.6520 0.6036 -0.4589
vn -0.2160 0.8241 -0.5237
vn 0.5432 0.8043 0.2410
vn 0.1968 0.9391 0.2819
vn 0.3524 0.9352 -0.0347
vn 0.1401 0.8137 -0.5642
vn -0.2954 0.9088 -0.2946
vn -0.2934 0.9168 -0.2708
vn -0.7128 0.6974 -0.0752
vn -0.5771 0.7750 0.2576
vn -0.1589 0.9871 0.0204
vn -0.2249 0.9005 0.3722
vn 0.3008 0.8183 0.4898
vn 0.3413 0.7388 0.5811
vn 0.0076 0.8458 0.5334
vn 0.2622 0.7877 0.5575
vn 0.1529 0.8794 0.4509
vn 0.5438 0.8055 0.2353
vn 0.6783 0.7289 0.0934
vn 0.3238 0.2266 -0.9186
vn 0.3416 0.2177 -0.9143
vn -0.4422 -0.1223 -0.8885
vn -0.3885 0.0160 -0.9213
vn -0.8985 -0.0328 -0.4378
vn -0.9009 0.2226 -0.3727
vn -0.9859 -0.1264 0.1095
vn -0.3417 0.8069 0.4818
vn 0.2097 0.8654 0.4551
vn 0.4083 0.6599 0.6308
vn -0.0516 0.5709 0.8194
vn -0.0823 0.5623 0.8228
vn 0.0415 -0.6074 0.7933
vn 0.8686 0.3701 0.3295
vn 0.2883 0.1311 -0.9485
vn -0.8826 0.0760 -0.4640
vn -0.3114 0.7911 0.5265
vn -0.0666 0.5729 0.8169
vn 0.9515 0.0500 0.3036
usemtl Rock
s off
f 1/1/1 17/2/1 22/3/1
f 2/4/2 18/5/2 24/6/2
f 3/7/3 19/8/3 25/9/3
f 4/10/4 20/11/4 26/12/4
f 5/13/5 21/14/5 23/15/5
f 23/15/6 26/12/6 6/16/6
f 23/15/7 21/14/7 26/12/7
f 21/14/8 4/10/8 26/12/8
f 26/12/9 25/9/9 6/16/9
f 26/12/10 20/11/10 25/9/10
f 20/11/11 3/7/11 25/9/11
f 25/9/12 24/6/12 6/16/12
f 25/9/13 19/8/13 24/6/13
f 19/8/14 2/4/14 24/6/14
f 24/6/15 22/3/15 6/16/15
f 24/6/16 18/5/16 22/3/16
f 18/5/17 1/1/17 22/3/17
f 22/3/18 23/15/18 6/16/18
f 22/3/19 17/2/19 23/15/19
f 17/2/20 5/13/20 23/15/20
f 8/17/21 21/14/21 5/13/21
f 8/17/22 15/18/22 21/14/22
f 15/18/23 4/10/23 21/14/23
f 16/19/24 20/11/24 4/10/24
f 16/19/25 13/20/25 20/11/25
f 13/20/26 3/7/26 20/11/26
f 14/21/27 19/8/27 3/7/27
f 14/21/28 11/22/28 19/8/28
f 11/22/29 2/4/29 19/8/29
f 12/23/30 18/5/30 2/4/30
f 12/23/31 9/24/31 18/5/31
f 9/24/32 1/1/32 18/5/32
f 10/25/33 17/2/33 1/1/33
f 10/25/34 7/26/34 17/2/34
f 7/26/35 5/13/35 17/2/35
f 15/18/36 16/19/36 4/10/36
f 13/20/37 14/21/37 3/7/37
f 11/22/38 12/23/38 2/4/38
f 9/24/39 10/25/39 1/1/39
f 7/26/40 8/17/40 5/13/40
